<?xml version="1.0" standalone="no"?>
 <!DOCTYPE svg PUBLIC "-//W3C//DTD SVG 1.1//EN" 
 "http://www.w3.org/Graphics/SVG/1.1/DTD/svg11.dtd"> 
<svg
  xmlns:svg="http://www.w3.org/2000/svg"
  xmlns="http://www.w3.org/2000/svg"
  xmlns:xlink="http://www.w3.org/1999/xlink"
  version="1.1"
  width="50.8000mm" height="70.1040mm" viewBox="0.0000 0.0000 50.8000 70.1040">
<title>SVG Image created as back.svg date 2025/09/13 13:58:58 </title>
  <desc>Image generated by PCBNEW </desc>
<g style="fill:#000000; fill-opacity:1.0000;stroke:#000000; stroke-opacity:1.0000;
stroke-linecap:round; stroke-linejoin:round;"
 transform="translate(0 0) scale(1 1)">
</g>
<g style="fill:#000000; fill-opacity:1.0000; 
stroke:#000000; stroke-width:0.0212; stroke-opacity:1; 
stroke-linecap:round; stroke-linejoin:round;">
<rect x="-5.025000" y="-5.050000" width="60.875000" height="79.925000" rx="0.000000" />
<path style="fill:none; 
stroke:#FFFFFF; stroke-width:0.0500; stroke-opacity:1; 
stroke-linecap:round; stroke-linejoin:round;fill:none"
d="M 0.0000,0.0000
50.8000,0.0000
50.8000,69.8500
0.0000,69.8500
Z" /> 
</g>
<g style="fill:#FFFFFF; fill-opacity:1.0000; stroke:none;">
<circle cx="30.4800" cy="23.4950" r="0.3810" /> 
</g>
<g style="fill:#FFFFFF; fill-opacity:1.0000; stroke:none;">
<circle cx="30.4800" cy="20.9550" r="0.3810" /> 
</g>
<g style="fill:#FFFFFF; fill-opacity:1.0000; stroke:none;">
<circle cx="40.0050" cy="19.6450" r="0.3810" /> 
</g>
<g style="fill:#FFFFFF; fill-opacity:1.0000; stroke:none;">
<circle cx="40.0050" cy="22.1450" r="0.3810" /> 
</g>
<g style="fill:#FFFFFF; fill-opacity:1.0000; stroke:none;">
<circle cx="30.4800" cy="13.2950" r="0.3810" /> 
</g>
<g style="fill:#FFFFFF; fill-opacity:1.0000; stroke:none;">
<circle cx="30.4800" cy="10.7950" r="0.3810" /> 
</g>
<g style="fill:#FFFFFF; fill-opacity:1.0000; stroke:none;">
<circle cx="30.4800" cy="8.2950" r="0.3810" /> 
</g>
<g style="fill:#FFFFFF; fill-opacity:1.0000; stroke:none;">
<circle cx="30.4800" cy="5.7950" r="0.3810" /> 
</g>
<g style="fill:#FFFFFF; fill-opacity:1.0000; stroke:none;">
<circle cx="39.3700" cy="13.2950" r="0.3810" /> 
</g>
<g style="fill:#FFFFFF; fill-opacity:1.0000; stroke:none;">
<circle cx="39.3700" cy="10.7950" r="0.3810" /> 
</g>
<g style="fill:#FFFFFF; fill-opacity:1.0000; stroke:none;">
<circle cx="39.3700" cy="8.2950" r="0.3810" /> 
</g>
<g style="fill:#FFFFFF; fill-opacity:1.0000; stroke:none;">
<circle cx="39.3700" cy="5.7950" r="0.3810" /> 
</g>
<g style="fill:#FFFFFF; fill-opacity:1.0000; stroke:none;">
<circle cx="40.0050" cy="28.6150" r="0.3810" /> 
</g>
<g style="fill:#FFFFFF; fill-opacity:1.0000; stroke:none;">
<circle cx="40.0050" cy="31.1150" r="0.3810" /> 
</g>
<g style="fill:#FFFFFF; fill-opacity:1.0000; stroke:none;">
<circle cx="40.0050" cy="33.6150" r="0.3810" /> 
</g>
<g style="fill:#FFFFFF; fill-opacity:1.0000; stroke:none;">
<circle cx="40.0050" cy="36.1150" r="0.3810" /> 
</g>
<g style="fill:#FFFFFF; fill-opacity:1.0000; stroke:none;">
<circle cx="48.8950" cy="6.9450" r="0.2540" /> 
</g>
<g style="fill:#FFFFFF; fill-opacity:1.0000; stroke:none;">
<circle cx="48.8950" cy="9.4850" r="0.2540" /> 
</g>
<g style="fill:#FFFFFF; fill-opacity:1.0000; stroke:none;">
<circle cx="48.8950" cy="12.0250" r="0.2540" /> 
</g>
<g style="fill:#FFFFFF; fill-opacity:1.0000; stroke:none;">
<circle cx="48.8950" cy="14.5650" r="0.2540" /> 
</g>
<g style="fill:#FFFFFF; fill-opacity:1.0000; stroke:none;">
<circle cx="48.8950" cy="17.1050" r="0.2540" /> 
</g>
<g style="fill:#FFFFFF; fill-opacity:1.0000; stroke:none;">
<circle cx="48.8950" cy="19.6450" r="0.2540" /> 
</g>
<g style="fill:#FFFFFF; fill-opacity:1.0000; stroke:none;">
<circle cx="48.8950" cy="22.1850" r="0.2540" /> 
</g>
<g style="fill:#FFFFFF; fill-opacity:1.0000; stroke:none;">
<circle cx="48.8950" cy="24.7250" r="0.2540" /> 
</g>
<g style="fill:#FFFFFF; fill-opacity:1.0000; stroke:none;">
<circle cx="48.8950" cy="27.2650" r="0.2540" /> 
</g>
<g style="fill:#FFFFFF; fill-opacity:1.0000; stroke:none;">
<circle cx="48.8950" cy="29.8050" r="0.2540" /> 
</g>
<g style="fill:#FFFFFF; fill-opacity:1.0000; stroke:none;">
<circle cx="48.8950" cy="32.3450" r="0.2540" /> 
</g>
<g style="fill:#FFFFFF; fill-opacity:1.0000; stroke:none;">
<circle cx="48.8950" cy="34.8850" r="0.2540" /> 
</g>
<g style="fill:#FFFFFF; fill-opacity:1.0000; stroke:none;">
<circle cx="48.8950" cy="37.4250" r="0.2540" /> 
<path style="fill:#FFFFFF; fill-opacity:1.0000; stroke:none;fill-rule:evenodd;"
d="M 31.3300,21.6800
31.3110,21.7757
31.2568,21.8568
31.1757,21.9110
31.0800,21.9300
29.8800,21.9300
29.7843,21.9110
29.7032,21.8568
29.6490,21.7757
29.6300,21.6800
29.6300,20.2300
29.6490,20.1343
29.7032,20.0532
29.7843,19.9990
29.8800,19.9800
31.0800,19.9800
31.1757,19.9990
31.2568,20.0532
31.3110,20.1343
31.3300,20.2300
Z" /> 
</g>
<g style="fill:#FFFFFF; fill-opacity:1.0000; stroke:none;">
<circle cx="48.8950" cy="6.9450" r="0.9525" /> 
<circle cx="48.8950" cy="9.4850" r="0.9525" /> 
<circle cx="48.8950" cy="12.0250" r="0.9525" /> 
<circle cx="48.8950" cy="22.1850" r="0.9525" /> 
<circle cx="48.8950" cy="24.7250" r="0.9525" /> 
<circle cx="48.8950" cy="27.2650" r="0.9525" /> 
<circle cx="48.8950" cy="29.8050" r="0.9525" /> 
<circle cx="33.6550" cy="36.1950" r="0.8255" /> 
</g>
<g style="fill:#FFFFFF; fill-opacity:1.0000; stroke:none;">
<circle cx="33.5850" cy="23.5000" r="0.8255" /> 
</g>
<g style="fill:#FFFFFF; fill-opacity:1.0000; stroke:none;">
<circle cx="35.5600" cy="1.9050" r="0.8255" /> 
</g>
<g style="fill:#FFFFFF; fill-opacity:1.0000; stroke:none;">
<circle cx="34.5273" cy="16.9077" r="0.8255" /> 
</g>
<g style="fill:#FFFFFF; fill-opacity:1.0000; stroke:none;">
<circle cx="34.9250" cy="10.7950" r="0.8255" /> 
</g>
<g style="fill:none; 
stroke:#FFFFFF; stroke-width:1.2700; stroke-opacity:1; 
stroke-linecap:round; stroke-linejoin:round;">
<path d="M35.5600 1.9050
L47.6250 1.9050
" />
<path d="M33.6550 36.1950
L33.5850 23.5000
" />
<path d="M48.8950 5.0800
L48.8950 6.9450
" />
<path d="M33.5850 23.5000
L33.6550 19.0500
" />
<path d="M26.6700 3.1750
L27.9400 1.9050
" />
<path d="M33.6550 19.0500
L30.4800 17.7800
" />
<path d="M48.8950 9.4850
L48.8950 6.9450
" />
<path d="M47.6250 1.9050
L48.8950 5.0800
" />
<path d="M27.9400 1.9050
L35.5600 1.9050
" />
<path d="M30.4800 17.7800
L26.6700 17.7800
" />
<path d="M26.6700 17.7800
L26.6700 3.1750
" />
</g>
<g style="fill:none; 
stroke:#FFFFFF; stroke-width:0.5080; stroke-opacity:1; 
stroke-linecap:round; stroke-linejoin:round;">
<path d="M45.6800 27.2650
L43.8150 25.4000
" />
<path d="M43.8150 25.4000
L35.5600 25.4000
" />
<path d="M35.5600 25.4000
L35.5600 17.7800
" />
<path d="M34.6877 16.9077
L34.5273 16.9077
" />
<path d="M48.8950 27.2650
L45.6800 27.2650
" />
<path d="M35.5600 17.7800
L34.6877 16.9077
" />
<path d="M43.8150 16.5100
L36.1950 16.5100
" />
<path d="M36.1950 16.5100
L35.5600 15.8750
" />
<path d="M46.3550 24.7650
L46.3550 19.0500
" />
<path d="M35.5600 11.4300
L34.9250 10.7950
" />
<path d="M48.8950 24.7250
L46.3950 24.7250
" />
<path d="M46.3950 24.7250
L46.3550 24.7650
" />
<path d="M35.5600 15.8750
L35.5600 11.4300
" />
<path d="M46.3550 19.0500
L43.8150 16.5100
" />
<path style="fill:#FFFFFF; fill-opacity:1.0000; stroke:none;fill-rule:evenodd;"
d="M 26.7197,0.6543
26.8017,0.7091
26.8566,0.7912
26.8758,0.8880
26.8566,0.9848
26.8017,1.0669
25.6040,2.2646
25.5077,2.3972
25.4748,2.4426
25.4747,2.4426
25.3749,2.6385
25.3749,2.6385
25.3069,2.8478
25.2725,3.0650
25.2725,17.8900
25.3069,18.1072
25.3749,18.3165
25.3749,18.3165
25.4747,18.5124
25.4748,18.5125
25.6040,18.6904
25.7596,18.8460
25.9026,18.9499
25.9376,18.9752
26.1335,19.0751
26.3428,19.1431
26.5600,19.1775
30.1621,19.1775
30.2561,19.1956
32.0808,19.9255
32.1635,19.9793
32.2194,20.0607
32.2398,20.1573
32.2398,20.1644
32.2007,22.6524
32.1799,22.7489
32.1700,22.7679
32.1702,22.7680
32.1657,22.7768
32.0701,23.0078
32.0475,23.1019
32.0061,23.1915
31.9336,23.2585
31.8410,23.2927
31.7424,23.2888
31.6527,23.2475
31.5857,23.1750
31.5608,23.1210
31.5397,23.0560
31.4580,22.8957
31.3522,22.7501
31.2249,22.6228
31.2249,22.6228
31.0793,22.5170
31.0793,22.5170
30.9190,22.4353
30.7478,22.3797
30.5700,22.3515
30.5700,22.3515
30.3900,22.3515
30.3900,22.3515
30.2122,22.3797
30.0410,22.4353
29.8807,22.5170
29.8807,22.5170
29.7351,22.6228
29.6078,22.7501
29.5020,22.8957
29.5020,22.8957
29.4203,23.0560
29.3647,23.2272
29.3365,23.4050
29.3365,23.5850
29.3647,23.7628
29.4203,23.9340
29.5020,24.0943
29.5020,24.0943
29.6078,24.2399
29.6078,24.2399
29.7351,24.3672
29.8807,24.4730
30.0410,24.5547
30.2122,24.6103
30.3900,24.6385
30.3900,24.6385
30.5700,24.6385
30.5700,24.6385
30.7478,24.6103
30.9190,24.5547
31.0793,24.4730
31.2249,24.3672
31.3522,24.2399
31.4580,24.0943
31.5397,23.9340
31.5594,23.8732
31.6077,23.7871
31.6852,23.7260
31.7802,23.6992
31.8782,23.7108
31.9644,23.7590
32.0255,23.8366
32.0461,23.8924
32.0701,23.9922
32.1695,24.2323
32.1679,24.2330
32.1913,24.3158
32.1921,24.3343
32.2530,35.3784
32.2343,35.4753
32.2337,35.4766
32.2104,35.5330
32.1401,35.7028
32.0817,35.9458
32.0621,36.1950
32.0621,36.1950
32.0817,36.4442
32.1401,36.6872
32.2357,36.9182
32.3663,37.1313
32.3663,37.1313
32.5286,37.3214
32.5286,37.3214
32.5328,37.3249
32.7187,37.4837
32.7187,37.4837
32.9318,37.6143
32.9318,37.6143
32.9318,37.6143
33.1628,37.7099
33.4058,37.7683
33.6317,37.7861
33.6550,37.7879
33.6550,37.7879
33.6550,37.7879
33.6763,37.7862
33.9042,37.7683
34.1472,37.7099
34.3782,37.6143
34.5913,37.4837
34.7814,37.3214
34.9437,37.1313
35.0743,36.9182
35.0743,36.9182
35.0788,36.9093
35.0803,36.9101
35.1281,36.8386
35.2102,36.7837
35.3070,36.7645
35.4038,36.7837
35.4859,36.8386
35.5407,36.9207
35.5600,37.0175
35.5600,38.8620
42.9260,38.8620
42.9260,26.6695
42.9453,26.5727
43.0001,26.4906
43.0822,26.4358
43.1790,26.4165
43.2892,26.4165
43.3860,26.4358
43.4681,26.4906
45.0320,28.0546
45.1985,28.1658
45.3835,28.2424
45.3835,28.2424
45.3835,28.2424
45.5799,28.2815
45.5799,28.2815
47.3902,28.2815
47.4870,28.3008
47.5691,28.3556
47.5880,28.3768
47.6343,28.4348
47.6343,28.4348
47.6343,28.4348
47.8227,28.6096
48.0351,28.7544
48.0351,28.7544
48.0351,28.7544
48.2667,28.8659
48.2667,28.8659
48.2667,28.8659
48.5123,28.9417
48.7665,28.9800
49.0235,28.9800
49.2777,28.9417
49.5233,28.8659
49.7549,28.7544
49.7695,28.7445
49.8603,28.7058
49.9590,28.7049
50.0506,28.7418
50.1210,28.8110
50.1597,28.9018
50.1650,28.9535
50.1650,31.5820
50.1457,31.6788
50.0909,31.7609
50.0088,31.8157
49.9120,31.8350
49.8152,31.8157
49.7331,31.7609
49.7016,31.7226
49.6846,31.6970
49.5430,31.5554
49.5430,31.5554
49.3765,31.4442
49.3765,31.4442
49.3765,31.4442
49.3765,31.4442
49.1915,31.3676
49.1915,31.3676
49.1073,31.3508
48.9951,31.3285
48.7949,31.3285
48.6827,31.3508
48.5985,31.3676
48.4135,31.4442
48.4135,31.4442
48.2470,31.5554
48.1054,31.6970
47.9942,31.8635
47.9942,31.8635
47.9176,32.0485
47.8980,32.1467
47.8785,32.2449
47.8785,32.4451
47.9045,32.5760
47.9176,32.6415
47.9942,32.8265
47.9942,32.8265
47.9942,32.8265
48.1054,32.9930
48.2470,33.1346
48.4135,33.2458
48.4135,33.2458
48.4135,33.2458
48.5985,33.3224
48.5985,33.3224
48.5985,33.3224
48.7949,33.3615
48.7949,33.3615
48.9951,33.3615
48.9951,33.3615
49.1915,33.3224
49.3765,33.2458
49.5430,33.1346
49.6846,32.9930
49.7016,32.9674
49.7714,32.8976
49.8626,32.8599
49.9614,32.8599
50.0526,32.8976
50.1224,32.9674
50.1601,33.0586
50.1650,33.1080
50.1650,34.1220
50.1457,34.2188
50.0909,34.3009
50.0088,34.3558
49.9120,34.3750
49.8152,34.3558
49.7331,34.3009
49.7016,34.2626
49.6846,34.2370
49.5430,34.0954
49.5430,34.0954
49.3765,33.9842
49.3765,33.9842
49.3765,33.9842
49.3765,33.9842
49.1915,33.9076
49.1915,33.9076
49.1073,33.8908
48.9951,33.8685
48.7949,33.8685
48.6827,33.8908
48.5985,33.9076
48.4135,33.9842
48.4135,33.9842
48.2470,34.0954
48.1054,34.2370
47.9942,34.4035
47.9942,34.4035
47.9176,34.5885
47.8980,34.6867
47.8785,34.7849
47.8785,34.9851
47.9045,35.1160
47.9176,35.1815
47.9942,35.3665
47.9942,35.3665
47.9942,35.3665
48.1054,35.5330
48.2470,35.6746
48.4135,35.7858
48.4135,35.7858
48.4135,35.7858
48.5985,35.8624
48.5985,35.8624
48.5985,35.8624
48.7949,35.9015
48.7949,35.9015
48.9951,35.9015
48.9951,35.9015
49.1915,35.8624
49.3765,35.7858
49.5430,35.6746
49.6846,35.5330
49.7016,35.5074
49.7714,35.4376
49.8626,35.3999
49.9614,35.3999
50.0526,35.4376
50.1224,35.5074
50.1601,35.5986
50.1650,35.6480
50.1650,36.6620
50.1457,36.7588
50.0909,36.8409
50.0088,36.8957
49.9120,36.9150
49.8152,36.8957
49.7331,36.8409
49.7016,36.8026
49.6846,36.7770
49.5430,36.6354
49.5430,36.6354
49.3765,36.5242
49.3765,36.5242
49.3765,36.5242
49.3765,36.5242
49.1915,36.4476
49.1915,36.4476
49.1073,36.4308
48.9951,36.4085
48.7949,36.4085
48.6827,36.4308
48.5985,36.4476
48.4135,36.5242
48.4135,36.5242
48.2470,36.6354
48.1054,36.7770
47.9942,36.9435
47.9942,36.9435
47.9176,37.1285
47.9170,37.1313
47.8785,37.3249
47.8785,37.5251
47.8962,37.6143
47.9176,37.7215
47.9942,37.9065
47.9942,37.9065
47.9942,37.9065
48.1054,38.0730
48.2470,38.2146
48.4135,38.3258
48.4135,38.3258
48.4135,38.3258
48.5985,38.4024
48.5985,38.4024
48.5985,38.4024
48.7949,38.4415
48.7949,38.4415
48.9951,38.4415
48.9951,38.4415
49.1915,38.4024
49.3765,38.3258
49.5430,38.2146
49.6846,38.0730
49.7016,38.0474
49.7714,37.9776
49.8626,37.9399
49.9614,37.9399
50.0526,37.9776
50.1224,38.0474
50.1601,38.1386
50.1650,38.1880
50.1650,68.9620
50.1457,69.0588
50.0909,69.1409
50.0088,69.1957
49.9120,69.2150
0.8880,69.2150
0.7912,69.1957
0.7091,69.1409
0.6543,69.0588
0.6350,68.9620
0.6350,0.8880
0.6543,0.7912
0.7091,0.7091
0.7912,0.6543
0.8880,0.6350
26.6228,0.6350
Z" /> 
<path style="fill:#FFFFFF; fill-opacity:1.0000; stroke:none;fill-rule:evenodd;"
d="M 46.6044,3.3218
46.6865,3.3766
46.7413,3.4587
46.7425,3.4615
47.3459,4.9700
47.4794,5.3039
47.4975,5.3979
47.4975,5.8677
47.4782,5.9646
47.4636,5.9942
47.3455,6.1988
47.3455,6.1988
47.2516,6.4381
47.1944,6.6887
47.1752,6.9450
47.1944,7.2013
47.2516,7.4519
47.3455,7.6912
47.3455,7.6912
47.3455,7.6912
47.4636,7.8957
47.4953,7.9892
47.4975,8.0222
47.4975,8.4077
47.4782,8.5046
47.4636,8.5342
47.3455,8.7388
47.3455,8.7388
47.2516,8.9781
47.1944,9.2287
47.1752,9.4850
47.1944,9.7413
47.2516,9.9919
47.3455,10.2312
47.3455,10.2312
47.3455,10.2312
47.4740,10.4538
47.4740,10.4538
47.6343,10.6548
47.8227,10.8296
48.0351,10.9744
48.0351,10.9744
48.0351,10.9744
48.2667,11.0859
48.2667,11.0859
48.2667,11.0859
48.5123,11.1617
48.7665,11.2000
49.0235,11.2000
49.2777,11.1617
49.5233,11.0859
49.7549,10.9744
49.7695,10.9645
49.8603,10.9258
49.9590,10.9249
50.0506,10.9618
50.1210,11.0310
50.1597,11.1218
50.1650,11.1735
50.1650,13.8020
50.1457,13.8988
50.0909,13.9809
50.0088,14.0358
49.9120,14.0550
49.8152,14.0358
49.7331,13.9809
49.7016,13.9426
49.6846,13.9170
49.5430,13.7754
49.5430,13.7754
49.3765,13.6642
49.3765,13.6642
49.3765,13.6642
49.3765,13.6642
49.1915,13.5876
49.1915,13.5876
49.1073,13.5708
48.9951,13.5485
48.7949,13.5485
48.6827,13.5708
48.5985,13.5876
48.4135,13.6642
48.4135,13.6642
48.2470,13.7754
48.1054,13.9170
47.9942,14.0835
47.9942,14.0835
47.9176,14.2685
47.8980,14.3667
47.8785,14.4649
47.8785,14.6651
47.9045,14.7960
47.9176,14.8615
47.9942,15.0465
47.9942,15.0465
47.9942,15.0465
48.1054,15.2130
48.2470,15.3546
48.4135,15.4658
48.4135,15.4658
48.4135,15.4658
48.5985,15.5424
48.5985,15.5424
48.5985,15.5424
48.7949,15.5815
48.7949,15.5815
48.9951,15.5815
48.9951,15.5815
49.1915,15.5424
49.3765,15.4658
49.5430,15.3546
49.6846,15.2130
49.7016,15.1874
49.7714,15.1176
49.8626,15.0799
49.9614,15.0799
50.0526,15.1176
50.1224,15.1874
50.1601,15.2786
50.1650,15.3280
50.1650,16.3420
50.1457,16.4388
50.0909,16.5209
50.0088,16.5757
49.9120,16.5950
49.8152,16.5757
49.7331,16.5209
49.7016,16.4826
49.6964,16.4747
49.6846,16.4570
49.5430,16.3154
49.5325,16.3084
49.4603,16.2602
49.3765,16.2042
49.3765,16.2042
49.3765,16.2042
49.1915,16.1276
49.1915,16.1276
49.1073,16.1108
48.9951,16.0885
48.7949,16.0885
48.6827,16.1108
48.5985,16.1276
48.4135,16.2042
48.4135,16.2042
48.2470,16.3154
48.1054,16.4570
47.9942,16.6235
47.9942,16.6235
47.9176,16.8085
47.8987,16.9032
47.8785,17.0049
47.8785,17.2051
47.9045,17.3360
47.9176,17.4015
47.9942,17.5865
47.9942,17.5865
47.9942,17.5865
48.1054,17.7530
48.2470,17.8946
48.4135,18.0058
48.4135,18.0058
48.4135,18.0058
48.5985,18.0824
48.5985,18.0824
48.5985,18.0824
48.7949,18.1215
48.7949,18.1215
48.9951,18.1215
48.9951,18.1215
49.1915,18.0824
49.3765,18.0058
49.5430,17.8946
49.6846,17.7530
49.7016,17.7274
49.7714,17.6576
49.8626,17.6199
49.9614,17.6199
50.0526,17.6576
50.1224,17.7274
50.1601,17.8186
50.1650,17.8680
50.1650,18.8820
50.1457,18.9788
50.0909,19.0609
50.0088,19.1157
49.9120,19.1350
49.8152,19.1157
49.7331,19.0609
49.7016,19.0226
49.6846,18.9970
49.5430,18.8554
49.5430,18.8554
49.3904,18.7535
49.3765,18.7442
49.3765,18.7442
49.3765,18.7442
49.1915,18.6676
49.1915,18.6676
49.1073,18.6508
48.9951,18.6285
48.7949,18.6285
48.6827,18.6508
48.5985,18.6676
48.4135,18.7442
48.4135,18.7442
48.2470,18.8554
48.1054,18.9970
47.9942,19.1635
47.9942,19.1635
47.9176,19.3485
47.9079,19.3969
47.8785,19.5449
47.8785,19.7451
47.9045,19.8760
47.9176,19.9415
47.9942,20.1265
47.9942,20.1265
47.9942,20.1265
48.1054,20.2930
48.2470,20.4346
48.4135,20.5458
48.4135,20.5458
48.4135,20.5458
48.5985,20.6224
48.5985,20.6224
48.5985,20.6224
48.7949,20.6615
48.7949,20.6615
48.9951,20.6615
48.9951,20.6615
49.1915,20.6224
49.3765,20.5458
49.5430,20.4346
49.6846,20.2930
49.7016,20.2674
49.7714,20.1976
49.8626,20.1599
49.9614,20.1599
50.0526,20.1976
50.1224,20.2674
50.1601,20.3586
50.1650,20.4080
50.1650,23.0365
50.1457,23.1333
50.0909,23.2154
50.0088,23.2702
49.9120,23.2895
49.8152,23.2702
49.7695,23.2455
49.7549,23.2356
49.7549,23.2356
49.5233,23.1241
49.5233,23.1241
49.3482,23.0701
49.2777,23.0483
49.0235,23.0100
48.7665,23.0100
48.5123,23.0483
48.2667,23.1241
48.0351,23.2356
48.0351,23.2356
47.8227,23.3804
47.7966,23.4046
47.7125,23.4564
47.6150,23.4720
47.5190,23.4491
47.4390,23.3913
47.3873,23.3072
47.3715,23.2192
47.3715,18.9499
47.3444,18.8138
47.3444,18.8138
47.3324,18.7535
47.3286,18.7442
47.2558,18.5685
47.1446,18.4020
44.4630,15.7204
44.4630,15.7204
44.2965,15.6092
44.2965,15.6092
44.2965,15.6092
44.2965,15.6092
44.1115,15.5326
44.1115,15.5326
44.0273,15.5158
43.9151,15.4935
43.9151,15.4935
43.4330,15.4935
43.3362,15.4742
43.2541,15.4194
43.1993,15.3373
43.1800,15.2405
43.1800,3.5555
43.1993,3.4587
43.2541,3.3766
43.3362,3.3218
43.4330,3.3025
46.5076,3.3025
Z" /> 
</g>
<g style="fill:#000000; fill-opacity:1.0000; stroke:none;">
<circle cx="33.6550" cy="36.1950" r="0.2540" /> 
</g>
<g style="fill:#000000; fill-opacity:1.0000; stroke:none;">
<circle cx="33.5850" cy="23.5000" r="0.2540" /> 
</g>
<g style="fill:#000000; fill-opacity:1.0000; stroke:none;">
<circle cx="35.5600" cy="1.9050" r="0.2540" /> 
</g>
<g style="fill:#000000; fill-opacity:1.0000; stroke:none;">
<circle cx="34.5273" cy="16.9077" r="0.2540" /> 
</g>
<g style="fill:#000000; fill-opacity:1.0000; stroke:none;">
<circle cx="34.9250" cy="10.7950" r="0.2540" /> 
</g>
<g style="fill:#000000; fill-opacity:1.0000; stroke:none;">
<circle cx="30.4800" cy="23.4950" r="0.3810" /> 
</g>
<g style="fill:#000000; fill-opacity:1.0000; stroke:none;">
<circle cx="30.4800" cy="20.9550" r="0.3810" /> 
</g>
<g style="fill:#000000; fill-opacity:1.0000; stroke:none;">
<circle cx="40.0050" cy="19.6450" r="0.3810" /> 
</g>
<g style="fill:#000000; fill-opacity:1.0000; stroke:none;">
<circle cx="40.0050" cy="22.1450" r="0.3810" /> 
</g>
<g style="fill:#000000; fill-opacity:1.0000; stroke:none;">
<circle cx="30.4800" cy="13.2950" r="0.3810" /> 
</g>
<g style="fill:#000000; fill-opacity:1.0000; stroke:none;">
<circle cx="30.4800" cy="10.7950" r="0.3810" /> 
</g>
<g style="fill:#000000; fill-opacity:1.0000; stroke:none;">
<circle cx="30.4800" cy="8.2950" r="0.3810" /> 
</g>
<g style="fill:#000000; fill-opacity:1.0000; stroke:none;">
<circle cx="30.4800" cy="5.7950" r="0.3810" /> 
</g>
<g style="fill:#000000; fill-opacity:1.0000; stroke:none;">
<circle cx="39.3700" cy="13.2950" r="0.3810" /> 
</g>
<g style="fill:#000000; fill-opacity:1.0000; stroke:none;">
<circle cx="39.3700" cy="10.7950" r="0.3810" /> 
</g>
<g style="fill:#000000; fill-opacity:1.0000; stroke:none;">
<circle cx="39.3700" cy="8.2950" r="0.3810" /> 
</g>
<g style="fill:#000000; fill-opacity:1.0000; stroke:none;">
<circle cx="39.3700" cy="5.7950" r="0.3810" /> 
</g>
<g style="fill:#000000; fill-opacity:1.0000; stroke:none;">
<circle cx="40.0050" cy="28.6150" r="0.3810" /> 
</g>
<g style="fill:#000000; fill-opacity:1.0000; stroke:none;">
<circle cx="40.0050" cy="31.1150" r="0.3810" /> 
</g>
<g style="fill:#000000; fill-opacity:1.0000; stroke:none;">
<circle cx="40.0050" cy="33.6150" r="0.3810" /> 
</g>
<g style="fill:#000000; fill-opacity:1.0000; stroke:none;">
<circle cx="40.0050" cy="36.1150" r="0.3810" /> 
</g>
<g style="fill:#000000; fill-opacity:1.0000; stroke:none;">
<circle cx="48.8950" cy="6.9450" r="0.2540" /> 
</g>
<g style="fill:#000000; fill-opacity:1.0000; stroke:none;">
<circle cx="48.8950" cy="9.4850" r="0.2540" /> 
</g>
<g style="fill:#000000; fill-opacity:1.0000; stroke:none;">
<circle cx="48.8950" cy="12.0250" r="0.2540" /> 
</g>
<g style="fill:#000000; fill-opacity:1.0000; stroke:none;">
<circle cx="48.8950" cy="14.5650" r="0.2540" /> 
</g>
<g style="fill:#000000; fill-opacity:1.0000; stroke:none;">
<circle cx="48.8950" cy="17.1050" r="0.2540" /> 
</g>
<g style="fill:#000000; fill-opacity:1.0000; stroke:none;">
<circle cx="48.8950" cy="19.6450" r="0.2540" /> 
</g>
<g style="fill:#000000; fill-opacity:1.0000; stroke:none;">
<circle cx="48.8950" cy="22.1850" r="0.2540" /> 
</g>
<g style="fill:#000000; fill-opacity:1.0000; stroke:none;">
<circle cx="48.8950" cy="24.7250" r="0.2540" /> 
</g>
<g style="fill:#000000; fill-opacity:1.0000; stroke:none;">
<circle cx="48.8950" cy="27.2650" r="0.2540" /> 
</g>
<g style="fill:#000000; fill-opacity:1.0000; stroke:none;">
<circle cx="48.8950" cy="29.8050" r="0.2540" /> 
</g>
<g style="fill:#000000; fill-opacity:1.0000; stroke:none;">
<circle cx="48.8950" cy="32.3450" r="0.2540" /> 
</g>
<g style="fill:#000000; fill-opacity:1.0000; stroke:none;">
<circle cx="48.8950" cy="34.8850" r="0.2540" /> 
</g>
<g style="fill:#000000; fill-opacity:1.0000; stroke:none;">
<circle cx="48.8950" cy="37.4250" r="0.2540" /> 
</g> 
</svg>
