  0
SECTION
  2
HEADER
  9
$ANGBASE
  50
0.0
  9
$ANGDIR
  70
1
  9
$MEASUREMENT
  70
1
  0
ENDSEC
  0
SECTION
  2
TABLES
  0
TABLE
  2
LTYPE
  70
4
  0
LTYPE
  5
40F
  2
CONTINUOUS
  70
0
  3
Solid line
  72
65
  73
0
  40
0.0
  0
LTYPE
  5
410
  2
DASHDOT
 70
0
  3
Dash Dot ____ _ ____ _
 72
65
 73
4
 40
2.0
 49
1.25
 49
-0.25
 49
0.25
 49
-0.25
  0
LTYPE
  5
411
  2
DASHED
 70
0
  3
Dashed __ __ __ __ __
 72
65
 73
2
 40
0.75
 49
0.5
 49
-0.25
  0
LTYPE
  5
43B
  2
DOTTED
 70
0
  3
Dotted .  .  .  .
 72
65
 73
2
 40
0.2
 49
0.0
 49
-0.2
  0
ENDTAB
  0
TABLE
  2
STYLE
  70
4
  0
STYLE
  2
KICAD
  70
0
  40
0
  41
1
  42
1
  50
0
  71
0
  3
isocp.shx
  0
STYLE
  2
KICADB
  70
0
  40
0
  41
1
  42
1
  50
0
  71
0
  3
isocp.shx
  0
STYLE
  2
KICADI
  70
0
  40
0
  41
1
  42
1
  50
15
  71
0
  3
isocp.shx
  0
STYLE
  2
KICADBI
  70
0
  40
0
  41
1
  42
1
  50
15
  71
0
  3
isocp.shx
  0
ENDTAB
  0
TABLE
  2
LAYER
  70
1
  0
LAYER
  2
BLACK
  70
0
  62
7
  6
CONTINUOUS
  0
ENDTAB
  0
ENDSEC
  0
SECTION
  2
ENTITIES
0
LINE
8
BLACK
6
CONTINUOUS
10
0.
20
0.
11
50.7999999999999972
21
0.
0
LINE
8
BLACK
6
CONTINUOUS
10
50.7999999999999972
20
0.
11
50.7999999999999972
21
-69.8499999999999943
0
LINE
8
BLACK
6
CONTINUOUS
10
50.7999999999999972
20
-69.8499999999999943
11
0.
21
-69.8499999999999943
0
LINE
8
BLACK
6
CONTINUOUS
10
0.
20
-69.8499999999999943
11
0.
21
0.
0
CIRCLE
8
BLACK
10
30.4799999999999969
20
-23.4949999999999974
40
0.175
0
CIRCLE
8
BLACK
10
30.4799999999999969
20
-20.9549999999999983
40
0.175
0
CIRCLE
8
BLACK
10
40.0049999999999955
20
-19.6449999999999996
40
0.175
0
CIRCLE
8
BLACK
10
40.0049999999999955
20
-22.1449999999999996
40
0.175
0
CIRCLE
8
BLACK
10
30.4799999999999969
20
-13.2949999999999999
40
0.175
0
CIRCLE
8
BLACK
10
30.4799999999999969
20
-10.7949999999999999
40
0.175
0
CIRCLE
8
BLACK
10
30.4799999999999969
20
-8.2949999999999999
40
0.175
0
CIRCLE
8
BLACK
10
30.4799999999999969
20
-5.7949999999999999
40
0.175
0
CIRCLE
8
BLACK
10
39.3699999999999974
20
-13.2949999999999999
40
0.175
0
CIRCLE
8
BLACK
10
39.3699999999999974
20
-10.7949999999999999
40
0.175
0
CIRCLE
8
BLACK
10
39.3699999999999974
20
-8.2949999999999999
40
0.175
0
CIRCLE
8
BLACK
10
39.3699999999999974
20
-5.7949999999999999
40
0.175
0
CIRCLE
8
BLACK
10
40.0049999999999955
20
-28.6149999999999984
40
0.175
0
CIRCLE
8
BLACK
10
40.0049999999999955
20
-31.1149999999999984
40
0.175
0
CIRCLE
8
BLACK
10
40.0049999999999955
20
-33.615000000000002
40
0.175
0
CIRCLE
8
BLACK
10
40.0049999999999955
20
-36.1149999999999949
40
0.175
0
CIRCLE
8
BLACK
10
48.894999999999996
20
-6.9449999999999994
40
0.175
0
CIRCLE
8
BLACK
10
48.894999999999996
20
-9.4849999999999994
40
0.175
0
CIRCLE
8
BLACK
10
48.894999999999996
20
-12.0249999999999986
40
0.175
0
CIRCLE
8
BLACK
10
48.894999999999996
20
-14.5649999999999995
40
0.175
0
CIRCLE
8
BLACK
10
48.894999999999996
20
-17.1050000000000004
40
0.175
0
CIRCLE
8
BLACK
10
48.894999999999996
20
-19.6449999999999996
40
0.175
0
CIRCLE
8
BLACK
10
48.894999999999996
20
-22.1849999999999987
40
0.175
0
CIRCLE
8
BLACK
10
48.894999999999996
20
-24.7249999999999979
40
0.175
0
CIRCLE
8
BLACK
10
48.894999999999996
20
-27.264999999999997
40
0.175
0
CIRCLE
8
BLACK
10
48.894999999999996
20
-29.8049999999999997
40
0.175
0
CIRCLE
8
BLACK
10
48.894999999999996
20
-32.3449999999999989
40
0.175
0
CIRCLE
8
BLACK
10
48.894999999999996
20
-34.884999999999998
40
0.175
0
CIRCLE
8
BLACK
10
48.894999999999996
20
-37.4249999999999972
40
0.175
0
LINE
8
BLACK
6
CONTINUOUS
10
25.3999999999999986
20
-26.0350000000000001
11
30.4799999999999969
21
-25.9949999999999974
0
LINE
8
BLACK
6
CONTINUOUS
10
50.7999999999999972
20
0.
11
25.3999999999999986
21
0.
0
LINE
8
BLACK
6
CONTINUOUS
10
25.3999999999999986
20
0.
11
25.3999999999999986
21
-26.0350000000000001
0
LINE
8
BLACK
6
CONTINUOUS
10
30.4799999999999969
20
-39.3699999999999974
11
50.7999999999999972
21
-39.3699999999999974
0
LINE
8
BLACK
6
CONTINUOUS
10
30.4799999999999969
20
-25.9949999999999974
11
30.4799999999999969
21
-39.3699999999999974
0
LINE
8
BLACK
6
CONTINUOUS
10
50.7999999999999972
20
-39.3699999999999974
11
50.7999999999999972
21
0.
0
CIRCLE
8
BLACK
10
30.4799999999999969
20
-23.4949999999999974
40
0.175
0
CIRCLE
8
BLACK
10
30.4799999999999969
20
-20.9549999999999983
40
0.175
0
CIRCLE
8
BLACK
10
40.0049999999999955
20
-19.6449999999999996
40
0.175
0
CIRCLE
8
BLACK
10
40.0049999999999955
20
-22.1449999999999996
40
0.175
0
CIRCLE
8
BLACK
10
30.4799999999999969
20
-13.2949999999999999
40
0.175
0
CIRCLE
8
BLACK
10
30.4799999999999969
20
-10.7949999999999999
40
0.175
0
CIRCLE
8
BLACK
10
30.4799999999999969
20
-8.2949999999999999
40
0.175
0
CIRCLE
8
BLACK
10
30.4799999999999969
20
-5.7949999999999999
40
0.175
0
CIRCLE
8
BLACK
10
39.3699999999999974
20
-13.2949999999999999
40
0.175
0
CIRCLE
8
BLACK
10
39.3699999999999974
20
-10.7949999999999999
40
0.175
0
CIRCLE
8
BLACK
10
39.3699999999999974
20
-8.2949999999999999
40
0.175
0
CIRCLE
8
BLACK
10
39.3699999999999974
20
-5.7949999999999999
40
0.175
0
CIRCLE
8
BLACK
10
40.0049999999999955
20
-28.6149999999999984
40
0.175
0
CIRCLE
8
BLACK
10
40.0049999999999955
20
-31.1149999999999984
40
0.175
0
CIRCLE
8
BLACK
10
40.0049999999999955
20
-33.615000000000002
40
0.175
0
CIRCLE
8
BLACK
10
40.0049999999999955
20
-36.1149999999999949
40
0.175
0
CIRCLE
8
BLACK
10
48.894999999999996
20
-6.9449999999999994
40
0.175
0
CIRCLE
8
BLACK
10
48.894999999999996
20
-9.4849999999999994
40
0.175
0
CIRCLE
8
BLACK
10
48.894999999999996
20
-12.0249999999999986
40
0.175
0
CIRCLE
8
BLACK
10
48.894999999999996
20
-14.5649999999999995
40
0.175
0
CIRCLE
8
BLACK
10
48.894999999999996
20
-17.1050000000000004
40
0.175
0
CIRCLE
8
BLACK
10
48.894999999999996
20
-19.6449999999999996
40
0.175
0
CIRCLE
8
BLACK
10
48.894999999999996
20
-22.1849999999999987
40
0.175
0
CIRCLE
8
BLACK
10
48.894999999999996
20
-24.7249999999999979
40
0.175
0
CIRCLE
8
BLACK
10
48.894999999999996
20
-27.264999999999997
40
0.175
0
CIRCLE
8
BLACK
10
48.894999999999996
20
-29.8049999999999997
40
0.175
0
CIRCLE
8
BLACK
10
48.894999999999996
20
-32.3449999999999989
40
0.175
0
CIRCLE
8
BLACK
10
48.894999999999996
20
-34.884999999999998
40
0.175
0
CIRCLE
8
BLACK
10
48.894999999999996
20
-37.4249999999999972
40
0.175
  0
ENDSEC
  0
EOF
