  0
SECTION
  2
HEADER
  9
$ANGBASE
  50
0.0
  9
$ANGDIR
  70
1
  9
$MEASUREMENT
  70
1
  0
ENDSEC
  0
SECTION
  2
TABLES
  0
TABLE
  2
LTYPE
  70
4
  0
LTYPE
  5
40F
  2
CONTINUOUS
  70
0
  3
Solid line
  72
65
  73
0
  40
0.0
  0
LTYPE
  5
410
  2
DASHDOT
 70
0
  3
Dash Dot ____ _ ____ _
 72
65
 73
4
 40
2.0
 49
1.25
 49
-0.25
 49
0.25
 49
-0.25
  0
LTYPE
  5
411
  2
DASHED
 70
0
  3
Dashed __ __ __ __ __
 72
65
 73
2
 40
0.75
 49
0.5
 49
-0.25
  0
LTYPE
  5
43B
  2
DOTTED
 70
0
  3
Dotted .  .  .  .
 72
65
 73
2
 40
0.2
 49
0.0
 49
-0.2
  0
ENDTAB
  0
TABLE
  2
STYLE
  70
4
  0
STYLE
  2
KICAD
  70
0
  40
0
  41
1
  42
1
  50
0
  71
0
  3
isocp.shx
  0
STYLE
  2
KICADB
  70
0
  40
0
  41
1
  42
1
  50
0
  71
0
  3
isocp.shx
  0
STYLE
  2
KICADI
  70
0
  40
0
  41
1
  42
1
  50
15
  71
0
  3
isocp.shx
  0
STYLE
  2
KICADBI
  70
0
  40
0
  41
1
  42
1
  50
15
  71
0
  3
isocp.shx
  0
ENDTAB
  0
TABLE
  2
LAYER
  70
1
  0
LAYER
  2
BLACK
  70
0
  62
7
  6
CONTINUOUS
  0
ENDTAB
  0
ENDSEC
  0
SECTION
  2
ENTITIES
0
LINE
8
BLACK
6
CONTINUOUS
10
25.7616659999999982
20
-25.2198189999999975
11
25.7616659999999982
21
-25.9341039999999978
0
LINE
8
BLACK
6
CONTINUOUS
10
25.7616659999999982
20
-25.9341039999999978
11
25.7140469999999972
21
-26.0769609999999972
0
LINE
8
BLACK
6
CONTINUOUS
10
25.7140469999999972
20
-26.0769609999999972
11
25.6188089999999988
21
-26.1722000000000001
0
LINE
8
BLACK
6
CONTINUOUS
10
25.6188089999999988
20
-26.1722000000000001
11
25.4759519999999995
21
-26.2198189999999975
0
LINE
8
BLACK
6
CONTINUOUS
10
25.4759519999999995
20
-26.2198189999999975
11
25.3807139999999976
21
-26.2198189999999975
0
LINE
8
BLACK
6
CONTINUOUS
10
26.7140469999999972
20
-25.2198189999999975
11
26.2378569999999982
21
-25.2198189999999975
0
LINE
8
BLACK
6
CONTINUOUS
10
26.2378569999999982
20
-25.2198189999999975
11
26.1902379999999972
21
-25.6960090000000001
0
LINE
8
BLACK
6
CONTINUOUS
10
26.1902379999999972
20
-25.6960090000000001
11
26.2378569999999982
21
-25.6483899999999991
0
LINE
8
BLACK
6
CONTINUOUS
10
26.2378569999999982
20
-25.6483899999999991
11
26.3330950000000001
21
-25.6007709999999982
0
LINE
8
BLACK
6
CONTINUOUS
10
26.3330950000000001
20
-25.6007709999999982
11
26.5711899999999979
21
-25.6007709999999982
0
LINE
8
BLACK
6
CONTINUOUS
10
26.5711899999999979
20
-25.6007709999999982
11
26.6664279999999998
21
-25.6483899999999991
0
LINE
8
BLACK
6
CONTINUOUS
10
26.6664279999999998
20
-25.6483899999999991
11
26.7140469999999972
21
-25.6960090000000001
0
LINE
8
BLACK
6
CONTINUOUS
10
26.7140469999999972
20
-25.6960090000000001
11
26.7616659999999982
21
-25.7912469999999985
0
LINE
8
BLACK
6
CONTINUOUS
10
26.7616659999999982
20
-25.7912469999999985
11
26.7616659999999982
21
-26.0293419999999998
0
LINE
8
BLACK
6
CONTINUOUS
10
26.7616659999999982
20
-26.0293419999999998
11
26.7140469999999972
21
-26.1245799999999981
0
LINE
8
BLACK
6
CONTINUOUS
10
26.7140469999999972
20
-26.1245799999999981
11
26.6664279999999998
21
-26.1722000000000001
0
LINE
8
BLACK
6
CONTINUOUS
10
26.6664279999999998
20
-26.1722000000000001
11
26.5711899999999979
21
-26.2198189999999975
0
LINE
8
BLACK
6
CONTINUOUS
10
26.5711899999999979
20
-26.2198189999999975
11
26.3330950000000001
21
-26.2198189999999975
0
LINE
8
BLACK
6
CONTINUOUS
10
26.3330950000000001
20
-26.2198189999999975
11
26.2378569999999982
21
-26.1722000000000001
0
LINE
8
BLACK
6
CONTINUOUS
10
26.2378569999999982
20
-26.1722000000000001
11
26.1902379999999972
21
-26.1245799999999981
0
LINE
8
BLACK
6
CONTINUOUS
10
43.0098190000000002
20
-21.2283329999999992
11
43.724103999999997
21
-21.2283329999999992
0
LINE
8
BLACK
6
CONTINUOUS
10
43.724103999999997
20
-21.2283329999999992
11
43.8669609999999963
21
-21.2759520000000002
0
LINE
8
BLACK
6
CONTINUOUS
10
43.8669609999999963
20
-21.2759520000000002
11
43.9621999999999957
21
-21.3711899999999986
0
LINE
8
BLACK
6
CONTINUOUS
10
43.9621999999999957
20
-21.3711899999999986
11
44.0098190000000002
21
-21.5140469999999979
0
LINE
8
BLACK
6
CONTINUOUS
10
44.0098190000000002
20
-21.5140469999999979
11
44.0098190000000002
21
-21.6092849999999999
0
LINE
8
BLACK
6
CONTINUOUS
10
43.0098190000000002
20
-20.3235709999999976
11
43.0098190000000002
21
-20.5140469999999979
0
LINE
8
BLACK
6
CONTINUOUS
10
43.0098190000000002
20
-20.5140469999999979
11
43.0574379999999977
21
-20.6092849999999999
0
LINE
8
BLACK
6
CONTINUOUS
10
43.0574379999999977
20
-20.6092849999999999
11
43.1050569999999951
21
-20.6569040000000008
0
LINE
8
BLACK
6
CONTINUOUS
10
43.1050569999999951
20
-20.6569040000000008
11
43.2479140000000015
21
-20.7521419999999992
0
LINE
8
BLACK
6
CONTINUOUS
10
43.2479140000000015
20
-20.7521419999999992
11
43.4383899999999983
21
-20.7997610000000002
0
LINE
8
BLACK
6
CONTINUOUS
10
43.4383899999999983
20
-20.7997610000000002
11
43.8193419999999989
21
-20.7997610000000002
0
LINE
8
BLACK
6
CONTINUOUS
10
43.8193419999999989
20
-20.7997610000000002
11
43.9145800000000008
21
-20.7521419999999992
0
LINE
8
BLACK
6
CONTINUOUS
10
43.9145800000000008
20
-20.7521419999999992
11
43.9621999999999957
21
-20.7045229999999982
0
LINE
8
BLACK
6
CONTINUOUS
10
43.9621999999999957
20
-20.7045229999999982
11
44.0098190000000002
21
-20.6092849999999999
0
LINE
8
BLACK
6
CONTINUOUS
10
44.0098190000000002
20
-20.6092849999999999
11
44.0098190000000002
21
-20.4188089999999995
0
LINE
8
BLACK
6
CONTINUOUS
10
44.0098190000000002
20
-20.4188089999999995
11
43.9621999999999957
21
-20.3235709999999976
0
LINE
8
BLACK
6
CONTINUOUS
10
43.9621999999999957
20
-20.3235709999999976
11
43.9145800000000008
21
-20.2759520000000002
0
LINE
8
BLACK
6
CONTINUOUS
10
43.9145800000000008
20
-20.2759520000000002
11
43.8193419999999989
21
-20.2283329999999992
0
LINE
8
BLACK
6
CONTINUOUS
10
43.8193419999999989
20
-20.2283329999999992
11
43.5812469999999976
21
-20.2283329999999992
0
LINE
8
BLACK
6
CONTINUOUS
10
43.5812469999999976
20
-20.2283329999999992
11
43.4860089999999957
21
-20.2759520000000002
0
LINE
8
BLACK
6
CONTINUOUS
10
43.4860089999999957
20
-20.2759520000000002
11
43.4383899999999983
21
-20.3235709999999976
0
LINE
8
BLACK
6
CONTINUOUS
10
43.4383899999999983
20
-20.3235709999999976
11
43.3907710000000009
21
-20.4188089999999995
0
LINE
8
BLACK
6
CONTINUOUS
10
43.3907710000000009
20
-20.4188089999999995
11
43.3907710000000009
21
-20.6092849999999999
0
LINE
8
BLACK
6
CONTINUOUS
10
43.3907710000000009
20
-20.6092849999999999
11
43.4383899999999983
21
-20.7045229999999982
0
LINE
8
BLACK
6
CONTINUOUS
10
43.4383899999999983
20
-20.7045229999999982
11
43.4860089999999957
21
-20.7521419999999992
0
LINE
8
BLACK
6
CONTINUOUS
10
43.4860089999999957
20
-20.7521419999999992
11
43.5812469999999976
21
-20.7997610000000002
0
LINE
8
BLACK
6
CONTINUOUS
10
26.3848190000000002
20
-9.8783329999999996
11
27.0991040000000005
21
-9.8783329999999996
0
LINE
8
BLACK
6
CONTINUOUS
10
27.0991040000000005
20
-9.8783329999999996
11
27.2419609999999999
21
-9.9259519999999988
0
LINE
8
BLACK
6
CONTINUOUS
10
27.2419609999999999
20
-9.9259519999999988
11
27.3371999999999993
21
-10.0211899999999989
0
LINE
8
BLACK
6
CONTINUOUS
10
27.3371999999999993
20
-10.0211899999999989
11
27.3848190000000002
21
-10.1640470000000001
0
LINE
8
BLACK
6
CONTINUOUS
10
27.3848190000000002
20
-10.1640470000000001
11
27.3848190000000002
21
-10.2592850000000002
0
LINE
8
BLACK
6
CONTINUOUS
10
26.7181519999999999
20
-8.9735709999999997
11
27.3848190000000002
21
-8.9735709999999997
0
LINE
8
BLACK
6
CONTINUOUS
10
26.3371999999999993
20
-9.2116659999999992
11
27.0514849999999996
21
-9.4497609999999987
0
LINE
8
BLACK
6
CONTINUOUS
10
27.0514849999999996
20
-9.4497609999999987
11
27.0514849999999996
21
-8.8307140000000004
0
LINE
8
BLACK
6
CONTINUOUS
10
35.2748190000000008
20
-9.8783329999999996
11
35.9891039999999975
21
-9.8783329999999996
0
LINE
8
BLACK
6
CONTINUOUS
10
35.9891039999999975
20
-9.8783329999999996
11
36.1319609999999969
21
-9.9259519999999988
0
LINE
8
BLACK
6
CONTINUOUS
10
36.1319609999999969
20
-9.9259519999999988
11
36.2271999999999963
21
-10.0211899999999989
0
LINE
8
BLACK
6
CONTINUOUS
10
36.2271999999999963
20
-10.0211899999999989
11
36.2748190000000008
21
-10.1640470000000001
0
LINE
8
BLACK
6
CONTINUOUS
10
36.2748190000000008
20
-10.1640470000000001
11
36.2748190000000008
21
-10.2592850000000002
0
LINE
8
BLACK
6
CONTINUOUS
10
35.2748190000000008
20
-9.4973799999999997
11
35.2748190000000008
21
-8.8783329999999996
0
LINE
8
BLACK
6
CONTINUOUS
10
35.2748190000000008
20
-8.8783329999999996
11
35.6557710000000014
21
-9.2116659999999992
0
LINE
8
BLACK
6
CONTINUOUS
10
35.6557710000000014
20
-9.2116659999999992
11
35.6557710000000014
21
-9.0688089999999999
0
LINE
8
BLACK
6
CONTINUOUS
10
35.6557710000000014
20
-9.0688089999999999
11
35.7033899999999988
21
-8.9735709999999997
0
LINE
8
BLACK
6
CONTINUOUS
10
35.7033899999999988
20
-8.9735709999999997
11
35.7510089999999963
21
-8.9259519999999988
0
LINE
8
BLACK
6
CONTINUOUS
10
35.7510089999999963
20
-8.9259519999999988
11
35.8462469999999982
21
-8.8783329999999996
0
LINE
8
BLACK
6
CONTINUOUS
10
35.8462469999999982
20
-8.8783329999999996
11
36.0843419999999995
21
-8.8783329999999996
0
LINE
8
BLACK
6
CONTINUOUS
10
36.0843419999999995
20
-8.8783329999999996
11
36.1795800000000014
21
-8.9259519999999988
0
LINE
8
BLACK
6
CONTINUOUS
10
36.1795800000000014
20
-8.9259519999999988
11
36.2271999999999963
21
-8.9735709999999997
0
LINE
8
BLACK
6
CONTINUOUS
10
36.2271999999999963
20
-8.9735709999999997
11
36.2748190000000008
21
-9.0688089999999999
0
LINE
8
BLACK
6
CONTINUOUS
10
36.2748190000000008
20
-9.0688089999999999
11
36.2748190000000008
21
-9.3545230000000004
0
LINE
8
BLACK
6
CONTINUOUS
10
36.2748190000000008
20
-9.3545230000000004
11
36.2271999999999963
21
-9.4497609999999987
0
LINE
8
BLACK
6
CONTINUOUS
10
36.2271999999999963
20
-9.4497609999999987
11
36.1795800000000014
21
-9.4973799999999997
0
LINE
8
BLACK
6
CONTINUOUS
10
43.0098190000000002
20
-32.6983329999999981
11
43.724103999999997
21
-32.6983329999999981
0
LINE
8
BLACK
6
CONTINUOUS
10
43.724103999999997
20
-32.6983329999999981
11
43.8669609999999963
21
-32.7459519999999955
0
LINE
8
BLACK
6
CONTINUOUS
10
43.8669609999999963
20
-32.7459519999999955
11
43.9621999999999957
21
-32.8411899999999974
0
LINE
8
BLACK
6
CONTINUOUS
10
43.9621999999999957
20
-32.8411899999999974
11
44.0098190000000002
21
-32.9840469999999968
0
LINE
8
BLACK
6
CONTINUOUS
10
44.0098190000000002
20
-32.9840469999999968
11
44.0098190000000002
21
-33.0792849999999987
0
LINE
8
BLACK
6
CONTINUOUS
10
43.1050569999999951
20
-32.2697609999999955
11
43.0574379999999977
21
-32.2221419999999981
0
LINE
8
BLACK
6
CONTINUOUS
10
43.0574379999999977
20
-32.2221419999999981
11
43.0098190000000002
21
-32.1269039999999961
0
LINE
8
BLACK
6
CONTINUOUS
10
43.0098190000000002
20
-32.1269039999999961
11
43.0098190000000002
21
-31.8888089999999984
0
LINE
8
BLACK
6
CONTINUOUS
10
43.0098190000000002
20
-31.8888089999999984
11
43.0574379999999977
21
-31.793571
0
LINE
8
BLACK
6
CONTINUOUS
10
43.0574379999999977
20
-31.793571
11
43.1050569999999951
21
-31.7459519999999991
0
LINE
8
BLACK
6
CONTINUOUS
10
43.1050569999999951
20
-31.7459519999999991
11
43.200294999999997
21
-31.6983329999999981
0
LINE
8
BLACK
6
CONTINUOUS
10
43.200294999999997
20
-31.6983329999999981
11
43.2955329999999989
21
-31.6983329999999981
0
LINE
8
BLACK
6
CONTINUOUS
10
43.2955329999999989
20
-31.6983329999999981
11
43.4383899999999983
21
-31.7459519999999991
0
LINE
8
BLACK
6
CONTINUOUS
10
43.4383899999999983
20
-31.7459519999999991
11
44.0098190000000002
21
-32.31738
0
LINE
8
BLACK
6
CONTINUOUS
10
44.0098190000000002
20
-32.31738
11
44.0098190000000002
21
-31.6983329999999981
0
LINE
8
BLACK
6
CONTINUOUS
10
20.379999999999999
20
-20.5749999999999993
11
26.379999999999999
21
-20.5749999999999993
0
LINE
8
BLACK
6
CONTINUOUS
10
20.379999999999999
20
-21.3349999999999973
11
20.379999999999999
21
-20.5749999999999993
0
LINE
8
BLACK
6
CONTINUOUS
10
20.379999999999999
20
-23.1149999999999984
11
26.379999999999999
21
-23.1149999999999984
0
LINE
8
BLACK
6
CONTINUOUS
10
20.379999999999999
20
-23.875
11
20.379999999999999
21
-23.1149999999999984
0
LINE
8
BLACK
6
CONTINUOUS
10
26.379999999999999
20
-19.625
11
26.379999999999999
21
-24.8249999999999993
0
LINE
8
BLACK
6
CONTINUOUS
10
26.379999999999999
20
-21.3349999999999973
11
20.379999999999999
21
-21.3349999999999973
0
LINE
8
BLACK
6
CONTINUOUS
10
26.379999999999999
20
-23.2149999999999999
11
20.379999999999999
21
-23.2149999999999999
0
LINE
8
BLACK
6
CONTINUOUS
10
26.379999999999999
20
-23.3349999999999973
11
20.379999999999999
21
-23.3349999999999973
0
LINE
8
BLACK
6
CONTINUOUS
10
26.379999999999999
20
-23.4549999999999983
11
20.379999999999999
21
-23.4549999999999983
0
LINE
8
BLACK
6
CONTINUOUS
10
26.379999999999999
20
-23.5749999999999993
11
20.379999999999999
21
-23.5749999999999993
0
LINE
8
BLACK
6
CONTINUOUS
10
26.379999999999999
20
-23.6950000000000003
11
20.379999999999999
21
-23.6950000000000003
0
LINE
8
BLACK
6
CONTINUOUS
10
26.379999999999999
20
-23.8149999999999977
11
20.379999999999999
21
-23.8149999999999977
0
LINE
8
BLACK
6
CONTINUOUS
10
26.379999999999999
20
-23.875
11
20.379999999999999
21
-23.875
0
LINE
8
BLACK
6
CONTINUOUS
10
26.379999999999999
20
-24.8249999999999993
11
29.0399999999999991
21
-24.8249999999999993
0
LINE
8
BLACK
6
CONTINUOUS
10
29.0399999999999991
20
-19.625
11
26.379999999999999
21
-19.625
0
LINE
8
BLACK
6
CONTINUOUS
10
29.0399999999999991
20
-22.2249999999999979
11
26.379999999999999
21
-22.2249999999999979
0
LINE
8
BLACK
6
CONTINUOUS
10
29.0399999999999991
20
-24.8249999999999993
11
29.0399999999999991
21
-19.625
0
LINE
8
BLACK
6
CONTINUOUS
10
29.3699999999999974
20
-23.1149999999999984
11
29.0399999999999991
21
-23.1149999999999984
0
LINE
8
BLACK
6
CONTINUOUS
10
29.3699999999999974
20
-23.875
11
29.0399999999999991
21
-23.875
0
LINE
8
BLACK
6
CONTINUOUS
10
29.4370709999999995
20
-20.5749999999999993
11
29.0399999999999991
21
-20.5749999999999993
0
LINE
8
BLACK
6
CONTINUOUS
10
29.4370709999999995
20
-21.3349999999999973
11
29.0399999999999991
21
-21.3349999999999973
0
LINE
8
BLACK
6
CONTINUOUS
10
31.75
20
-23.4949999999999974
11
31.75
21
-24.7650000000000006
0
LINE
8
BLACK
6
CONTINUOUS
10
31.75
20
-24.7650000000000006
11
30.4799999999999969
21
-24.7650000000000006
0
LINE
8
BLACK
6
CONTINUOUS
10
36.4949999999999974
20
-17.0850000000000009
11
36.4949999999999974
21
-24.7049999999999983
0
LINE
8
BLACK
6
CONTINUOUS
10
36.4949999999999974
20
-24.7049999999999983
11
42.4649999999999963
21
-24.7049999999999983
0
LINE
8
BLACK
6
CONTINUOUS
10
37.2549999999999955
20
-17.8449999999999989
11
37.2549999999999955
21
-20.8949999999999996
0
LINE
8
BLACK
6
CONTINUOUS
10
37.2549999999999955
20
-23.9450000000000003
11
37.2549999999999955
21
-20.8949999999999996
0
LINE
8
BLACK
6
CONTINUOUS
10
40.2049999999999983
20
-17.0949999999999989
11
40.2049999999999983
21
-17.8449999999999989
0
LINE
8
BLACK
6
CONTINUOUS
10
40.2049999999999983
20
-17.8449999999999989
11
37.2549999999999955
21
-17.8449999999999989
0
LINE
8
BLACK
6
CONTINUOUS
10
40.2049999999999983
20
-23.9450000000000003
11
37.2549999999999955
21
-23.9450000000000003
0
LINE
8
BLACK
6
CONTINUOUS
10
40.2049999999999983
20
-24.6950000000000003
11
40.2049999999999983
21
-23.9450000000000003
0
LINE
8
BLACK
6
CONTINUOUS
10
41.7049999999999983
20
-17.0949999999999989
11
41.7049999999999983
21
-18.8949999999999996
0
LINE
8
BLACK
6
CONTINUOUS
10
41.7049999999999983
20
-18.8949999999999996
11
42.4549999999999983
21
-18.8949999999999996
0
LINE
8
BLACK
6
CONTINUOUS
10
41.7049999999999983
20
-20.3949999999999996
11
41.7049999999999983
21
-21.3949999999999996
0
LINE
8
BLACK
6
CONTINUOUS
10
41.7049999999999983
20
-21.3949999999999996
11
42.4549999999999983
21
-21.3949999999999996
0
LINE
8
BLACK
6
CONTINUOUS
10
41.7049999999999983
20
-22.8949999999999996
11
41.7049999999999983
21
-24.6950000000000003
0
LINE
8
BLACK
6
CONTINUOUS
10
41.7049999999999983
20
-24.6950000000000003
11
42.4549999999999983
21
-24.6950000000000003
0
LINE
8
BLACK
6
CONTINUOUS
10
42.4549999999999983
20
-17.0949999999999989
11
41.7049999999999983
21
-17.0949999999999989
0
LINE
8
BLACK
6
CONTINUOUS
10
42.4549999999999983
20
-18.8949999999999996
11
42.4549999999999983
21
-17.0949999999999989
0
LINE
8
BLACK
6
CONTINUOUS
10
42.4549999999999983
20
-20.3949999999999996
11
41.7049999999999983
21
-20.3949999999999996
0
LINE
8
BLACK
6
CONTINUOUS
10
42.4549999999999983
20
-21.3949999999999996
11
42.4549999999999983
21
-20.3949999999999996
0
LINE
8
BLACK
6
CONTINUOUS
10
42.4549999999999983
20
-22.8949999999999996
11
41.7049999999999983
21
-22.8949999999999996
0
LINE
8
BLACK
6
CONTINUOUS
10
42.4549999999999983
20
-24.6950000000000003
11
42.4549999999999983
21
-22.8949999999999996
0
LINE
8
BLACK
6
CONTINUOUS
10
42.4649999999999963
20
-17.0850000000000009
11
36.4949999999999974
21
-17.0850000000000009
0
LINE
8
BLACK
6
CONTINUOUS
10
42.4649999999999963
20
-24.7049999999999983
11
42.4649999999999963
21
-17.0850000000000009
0
LINE
8
BLACK
6
CONTINUOUS
10
42.7549999999999955
20
-16.7949999999999982
11
41.5049999999999955
21
-16.7949999999999982
0
LINE
8
BLACK
6
CONTINUOUS
10
42.7549999999999955
20
-18.0449999999999982
11
42.7549999999999955
21
-16.7949999999999982
0
LINE
8
BLACK
6
CONTINUOUS
10
27.7300000000000004
20
-14.8949999999999996
11
27.7300000000000004
21
-16.1449999999999996
0
LINE
8
BLACK
6
CONTINUOUS
10
27.7300000000000004
20
-16.1449999999999996
11
28.9800000000000004
21
-16.1449999999999996
0
LINE
8
BLACK
6
CONTINUOUS
10
28.0199999999999996
20
-3.2349999999999999
11
28.0199999999999996
21
-15.8549999999999986
0
LINE
8
BLACK
6
CONTINUOUS
10
28.0199999999999996
20
-15.8549999999999986
11
33.990000000000002
21
-15.8549999999999986
0
LINE
8
BLACK
6
CONTINUOUS
10
28.0299999999999976
20
-3.2449999999999997
11
28.0299999999999976
21
-5.0449999999999999
0
LINE
8
BLACK
6
CONTINUOUS
10
28.0299999999999976
20
-5.0449999999999999
11
28.7799999999999976
21
-5.0449999999999999
0
LINE
8
BLACK
6
CONTINUOUS
10
28.0299999999999976
20
-6.5449999999999999
11
28.0299999999999976
21
-12.5449999999999999
0
LINE
8
BLACK
6
CONTINUOUS
10
28.0299999999999976
20
-12.5449999999999999
11
28.7799999999999976
21
-12.5449999999999999
0
LINE
8
BLACK
6
CONTINUOUS
10
28.0299999999999976
20
-14.0449999999999999
11
28.0299999999999976
21
-15.8449999999999989
0
LINE
8
BLACK
6
CONTINUOUS
10
28.0299999999999976
20
-15.8449999999999989
11
28.7799999999999976
21
-15.8449999999999989
0
LINE
8
BLACK
6
CONTINUOUS
10
28.7799999999999976
20
-3.2449999999999997
11
28.0299999999999976
21
-3.2449999999999997
0
LINE
8
BLACK
6
CONTINUOUS
10
28.7799999999999976
20
-5.0449999999999999
11
28.7799999999999976
21
-3.2449999999999997
0
LINE
8
BLACK
6
CONTINUOUS
10
28.7799999999999976
20
-6.5449999999999999
11
28.0299999999999976
21
-6.5449999999999999
0
LINE
8
BLACK
6
CONTINUOUS
10
28.7799999999999976
20
-12.5449999999999999
11
28.7799999999999976
21
-6.5449999999999999
0
LINE
8
BLACK
6
CONTINUOUS
10
28.7799999999999976
20
-14.0449999999999999
11
28.0299999999999976
21
-14.0449999999999999
0
LINE
8
BLACK
6
CONTINUOUS
10
28.7799999999999976
20
-15.8449999999999989
11
28.7799999999999976
21
-14.0449999999999999
0
LINE
8
BLACK
6
CONTINUOUS
10
30.2799999999999976
20
-3.2449999999999997
11
30.2799999999999976
21
-3.9949999999999997
0
LINE
8
BLACK
6
CONTINUOUS
10
30.2799999999999976
20
-3.9949999999999997
11
33.2299999999999969
21
-3.9949999999999997
0
LINE
8
BLACK
6
CONTINUOUS
10
30.2799999999999976
20
-15.0949999999999989
11
33.2299999999999969
21
-15.0949999999999989
0
LINE
8
BLACK
6
CONTINUOUS
10
30.2799999999999976
20
-15.8449999999999989
11
30.2799999999999976
21
-15.0949999999999989
0
LINE
8
BLACK
6
CONTINUOUS
10
33.2299999999999969
20
-3.9949999999999997
11
33.2299999999999969
21
-9.5449999999999999
0
LINE
8
BLACK
6
CONTINUOUS
10
33.2299999999999969
20
-15.0949999999999989
11
33.2299999999999969
21
-9.5449999999999999
0
LINE
8
BLACK
6
CONTINUOUS
10
33.990000000000002
20
-3.2349999999999999
11
28.0199999999999996
21
-3.2349999999999999
0
LINE
8
BLACK
6
CONTINUOUS
10
33.990000000000002
20
-15.8549999999999986
11
33.990000000000002
21
-3.2349999999999999
0
LINE
8
BLACK
6
CONTINUOUS
10
36.6199999999999974
20
-14.8949999999999996
11
36.6199999999999974
21
-16.1449999999999996
0
LINE
8
BLACK
6
CONTINUOUS
10
36.6199999999999974
20
-16.1449999999999996
11
37.8699999999999974
21
-16.1449999999999996
0
LINE
8
BLACK
6
CONTINUOUS
10
36.9099999999999966
20
-3.2349999999999999
11
36.9099999999999966
21
-15.8549999999999986
0
LINE
8
BLACK
6
CONTINUOUS
10
36.9099999999999966
20
-15.8549999999999986
11
42.8799999999999955
21
-15.8549999999999986
0
LINE
8
BLACK
6
CONTINUOUS
10
36.9200000000000017
20
-3.2449999999999997
11
36.9200000000000017
21
-5.0449999999999999
0
LINE
8
BLACK
6
CONTINUOUS
10
36.9200000000000017
20
-5.0449999999999999
11
37.6700000000000017
21
-5.0449999999999999
0
LINE
8
BLACK
6
CONTINUOUS
10
36.9200000000000017
20
-6.5449999999999999
11
36.9200000000000017
21
-12.5449999999999999
0
LINE
8
BLACK
6
CONTINUOUS
10
36.9200000000000017
20
-12.5449999999999999
11
37.6700000000000017
21
-12.5449999999999999
0
LINE
8
BLACK
6
CONTINUOUS
10
36.9200000000000017
20
-14.0449999999999999
11
36.9200000000000017
21
-15.8449999999999989
0
LINE
8
BLACK
6
CONTINUOUS
10
36.9200000000000017
20
-15.8449999999999989
11
37.6700000000000017
21
-15.8449999999999989
0
LINE
8
BLACK
6
CONTINUOUS
10
37.6700000000000017
20
-3.2449999999999997
11
36.9200000000000017
21
-3.2449999999999997
0
LINE
8
BLACK
6
CONTINUOUS
10
37.6700000000000017
20
-5.0449999999999999
11
37.6700000000000017
21
-3.2449999999999997
0
LINE
8
BLACK
6
CONTINUOUS
10
37.6700000000000017
20
-6.5449999999999999
11
36.9200000000000017
21
-6.5449999999999999
0
LINE
8
BLACK
6
CONTINUOUS
10
37.6700000000000017
20
-12.5449999999999999
11
37.6700000000000017
21
-6.5449999999999999
0
LINE
8
BLACK
6
CONTINUOUS
10
37.6700000000000017
20
-14.0449999999999999
11
36.9200000000000017
21
-14.0449999999999999
0
LINE
8
BLACK
6
CONTINUOUS
10
37.6700000000000017
20
-15.8449999999999989
11
37.6700000000000017
21
-14.0449999999999999
0
LINE
8
BLACK
6
CONTINUOUS
10
39.1700000000000017
20
-3.2449999999999997
11
39.1700000000000017
21
-3.9949999999999997
0
LINE
8
BLACK
6
CONTINUOUS
10
39.1700000000000017
20
-3.9949999999999997
11
42.1199999999999974
21
-3.9949999999999997
0
LINE
8
BLACK
6
CONTINUOUS
10
39.1700000000000017
20
-15.0949999999999989
11
42.1199999999999974
21
-15.0949999999999989
0
LINE
8
BLACK
6
CONTINUOUS
10
39.1700000000000017
20
-15.8449999999999989
11
39.1700000000000017
21
-15.0949999999999989
0
LINE
8
BLACK
6
CONTINUOUS
10
42.1199999999999974
20
-3.9949999999999997
11
42.1199999999999974
21
-9.5449999999999999
0
LINE
8
BLACK
6
CONTINUOUS
10
42.1199999999999974
20
-15.0949999999999989
11
42.1199999999999974
21
-9.5449999999999999
0
LINE
8
BLACK
6
CONTINUOUS
10
42.8799999999999955
20
-3.2349999999999999
11
36.9099999999999966
21
-3.2349999999999999
0
LINE
8
BLACK
6
CONTINUOUS
10
42.8799999999999955
20
-15.8549999999999986
11
42.8799999999999955
21
-3.2349999999999999
0
LINE
8
BLACK
6
CONTINUOUS
10
36.4949999999999974
20
-26.0549999999999997
11
36.4949999999999974
21
-38.6749999999999972
0
LINE
8
BLACK
6
CONTINUOUS
10
36.4949999999999974
20
-38.6749999999999972
11
42.4649999999999963
21
-38.6749999999999972
0
LINE
8
BLACK
6
CONTINUOUS
10
37.2549999999999955
20
-26.8149999999999977
11
37.2549999999999955
21
-32.365000000000002
0
LINE
8
BLACK
6
CONTINUOUS
10
37.2549999999999955
20
-37.9149999999999991
11
37.2549999999999955
21
-32.365000000000002
0
LINE
8
BLACK
6
CONTINUOUS
10
40.2049999999999983
20
-26.0649999999999977
11
40.2049999999999983
21
-26.8149999999999977
0
LINE
8
BLACK
6
CONTINUOUS
10
40.2049999999999983
20
-26.8149999999999977
11
37.2549999999999955
21
-26.8149999999999977
0
LINE
8
BLACK
6
CONTINUOUS
10
40.2049999999999983
20
-37.9149999999999991
11
37.2549999999999955
21
-37.9149999999999991
0
LINE
8
BLACK
6
CONTINUOUS
10
40.2049999999999983
20
-38.6649999999999991
11
40.2049999999999983
21
-37.9149999999999991
0
LINE
8
BLACK
6
CONTINUOUS
10
41.7049999999999983
20
-26.0649999999999977
11
41.7049999999999983
21
-27.8649999999999984
0
LINE
8
BLACK
6
CONTINUOUS
10
41.7049999999999983
20
-27.8649999999999984
11
42.4549999999999983
21
-27.8649999999999984
0
LINE
8
BLACK
6
CONTINUOUS
10
41.7049999999999983
20
-29.3649999999999984
11
41.7049999999999983
21
-35.3649999999999949
0
LINE
8
BLACK
6
CONTINUOUS
10
41.7049999999999983
20
-35.3649999999999949
11
42.4549999999999983
21
-35.3649999999999949
0
LINE
8
BLACK
6
CONTINUOUS
10
41.7049999999999983
20
-36.8649999999999949
11
41.7049999999999983
21
-38.6649999999999991
0
LINE
8
BLACK
6
CONTINUOUS
10
41.7049999999999983
20
-38.6649999999999991
11
42.4549999999999983
21
-38.6649999999999991
0
LINE
8
BLACK
6
CONTINUOUS
10
42.4549999999999983
20
-26.0649999999999977
11
41.7049999999999983
21
-26.0649999999999977
0
LINE
8
BLACK
6
CONTINUOUS
10
42.4549999999999983
20
-27.8649999999999984
11
42.4549999999999983
21
-26.0649999999999977
0
LINE
8
BLACK
6
CONTINUOUS
10
42.4549999999999983
20
-29.3649999999999984
11
41.7049999999999983
21
-29.3649999999999984
0
LINE
8
BLACK
6
CONTINUOUS
10
42.4549999999999983
20
-35.3649999999999949
11
42.4549999999999983
21
-29.3649999999999984
0
LINE
8
BLACK
6
CONTINUOUS
10
42.4549999999999983
20
-36.8649999999999949
11
41.7049999999999983
21
-36.8649999999999949
0
LINE
8
BLACK
6
CONTINUOUS
10
42.4549999999999983
20
-38.6649999999999991
11
42.4549999999999983
21
-36.8649999999999949
0
LINE
8
BLACK
6
CONTINUOUS
10
42.4649999999999963
20
-26.0549999999999997
11
36.4949999999999974
21
-26.0549999999999997
0
LINE
8
BLACK
6
CONTINUOUS
10
42.4649999999999963
20
-38.6749999999999972
11
42.4649999999999963
21
-26.0549999999999997
0
LINE
8
BLACK
6
CONTINUOUS
10
42.7549999999999955
20
-25.7650000000000006
11
41.5049999999999955
21
-25.7650000000000006
0
LINE
8
BLACK
6
CONTINUOUS
10
42.7549999999999955
20
-27.014999999999997
11
42.7549999999999955
21
-25.7650000000000006
0
CIRCLE
8
BLACK
10
30.4799999999999969
20
-23.4949999999999974
40
0.175
0
CIRCLE
8
BLACK
10
30.4799999999999969
20
-20.9549999999999983
40
0.175
0
CIRCLE
8
BLACK
10
40.0049999999999955
20
-19.6449999999999996
40
0.175
0
CIRCLE
8
BLACK
10
40.0049999999999955
20
-22.1449999999999996
40
0.175
0
CIRCLE
8
BLACK
10
30.4799999999999969
20
-13.2949999999999999
40
0.175
0
CIRCLE
8
BLACK
10
30.4799999999999969
20
-10.7949999999999999
40
0.175
0
CIRCLE
8
BLACK
10
30.4799999999999969
20
-8.2949999999999999
40
0.175
0
CIRCLE
8
BLACK
10
30.4799999999999969
20
-5.7949999999999999
40
0.175
0
CIRCLE
8
BLACK
10
39.3699999999999974
20
-13.2949999999999999
40
0.175
0
CIRCLE
8
BLACK
10
39.3699999999999974
20
-10.7949999999999999
40
0.175
0
CIRCLE
8
BLACK
10
39.3699999999999974
20
-8.2949999999999999
40
0.175
0
CIRCLE
8
BLACK
10
39.3699999999999974
20
-5.7949999999999999
40
0.175
0
CIRCLE
8
BLACK
10
40.0049999999999955
20
-28.6149999999999984
40
0.175
0
CIRCLE
8
BLACK
10
40.0049999999999955
20
-31.1149999999999984
40
0.175
0
CIRCLE
8
BLACK
10
40.0049999999999955
20
-33.615000000000002
40
0.175
0
CIRCLE
8
BLACK
10
40.0049999999999955
20
-36.1149999999999949
40
0.175
0
CIRCLE
8
BLACK
10
48.894999999999996
20
-6.9449999999999994
40
0.175
0
CIRCLE
8
BLACK
10
48.894999999999996
20
-9.4849999999999994
40
0.175
0
CIRCLE
8
BLACK
10
48.894999999999996
20
-12.0249999999999986
40
0.175
0
CIRCLE
8
BLACK
10
48.894999999999996
20
-14.5649999999999995
40
0.175
0
CIRCLE
8
BLACK
10
48.894999999999996
20
-17.1050000000000004
40
0.175
0
CIRCLE
8
BLACK
10
48.894999999999996
20
-19.6449999999999996
40
0.175
0
CIRCLE
8
BLACK
10
48.894999999999996
20
-22.1849999999999987
40
0.175
0
CIRCLE
8
BLACK
10
48.894999999999996
20
-24.7249999999999979
40
0.175
0
CIRCLE
8
BLACK
10
48.894999999999996
20
-27.264999999999997
40
0.175
0
CIRCLE
8
BLACK
10
48.894999999999996
20
-29.8049999999999997
40
0.175
0
CIRCLE
8
BLACK
10
48.894999999999996
20
-32.3449999999999989
40
0.175
0
CIRCLE
8
BLACK
10
48.894999999999996
20
-34.884999999999998
40
0.175
0
CIRCLE
8
BLACK
10
48.894999999999996
20
-37.4249999999999972
40
0.175
0
LINE
8
BLACK
6
CONTINUOUS
10
0.
20
0.
11
50.7999999999999972
21
0.
0
LINE
8
BLACK
6
CONTINUOUS
10
50.7999999999999972
20
0.
11
50.7999999999999972
21
-69.8499999999999943
0
LINE
8
BLACK
6
CONTINUOUS
10
50.7999999999999972
20
-69.8499999999999943
11
0.
21
-69.8499999999999943
0
LINE
8
BLACK
6
CONTINUOUS
10
0.
20
-69.8499999999999943
11
0.
21
0.
0
CIRCLE
8
BLACK
10
30.4799999999999969
20
-23.4949999999999974
40
0.175
0
CIRCLE
8
BLACK
10
30.4799999999999969
20
-20.9549999999999983
40
0.175
0
CIRCLE
8
BLACK
10
40.0049999999999955
20
-19.6449999999999996
40
0.175
0
CIRCLE
8
BLACK
10
40.0049999999999955
20
-22.1449999999999996
40
0.175
0
CIRCLE
8
BLACK
10
30.4799999999999969
20
-13.2949999999999999
40
0.175
0
CIRCLE
8
BLACK
10
30.4799999999999969
20
-10.7949999999999999
40
0.175
0
CIRCLE
8
BLACK
10
30.4799999999999969
20
-8.2949999999999999
40
0.175
0
CIRCLE
8
BLACK
10
30.4799999999999969
20
-5.7949999999999999
40
0.175
0
CIRCLE
8
BLACK
10
39.3699999999999974
20
-13.2949999999999999
40
0.175
0
CIRCLE
8
BLACK
10
39.3699999999999974
20
-10.7949999999999999
40
0.175
0
CIRCLE
8
BLACK
10
39.3699999999999974
20
-8.2949999999999999
40
0.175
0
CIRCLE
8
BLACK
10
39.3699999999999974
20
-5.7949999999999999
40
0.175
0
CIRCLE
8
BLACK
10
40.0049999999999955
20
-28.6149999999999984
40
0.175
0
CIRCLE
8
BLACK
10
40.0049999999999955
20
-31.1149999999999984
40
0.175
0
CIRCLE
8
BLACK
10
40.0049999999999955
20
-33.615000000000002
40
0.175
0
CIRCLE
8
BLACK
10
40.0049999999999955
20
-36.1149999999999949
40
0.175
0
CIRCLE
8
BLACK
10
48.894999999999996
20
-6.9449999999999994
40
0.175
0
CIRCLE
8
BLACK
10
48.894999999999996
20
-9.4849999999999994
40
0.175
0
CIRCLE
8
BLACK
10
48.894999999999996
20
-12.0249999999999986
40
0.175
0
CIRCLE
8
BLACK
10
48.894999999999996
20
-14.5649999999999995
40
0.175
0
CIRCLE
8
BLACK
10
48.894999999999996
20
-17.1050000000000004
40
0.175
0
CIRCLE
8
BLACK
10
48.894999999999996
20
-19.6449999999999996
40
0.175
0
CIRCLE
8
BLACK
10
48.894999999999996
20
-22.1849999999999987
40
0.175
0
CIRCLE
8
BLACK
10
48.894999999999996
20
-24.7249999999999979
40
0.175
0
CIRCLE
8
BLACK
10
48.894999999999996
20
-27.264999999999997
40
0.175
0
CIRCLE
8
BLACK
10
48.894999999999996
20
-29.8049999999999997
40
0.175
0
CIRCLE
8
BLACK
10
48.894999999999996
20
-32.3449999999999989
40
0.175
0
CIRCLE
8
BLACK
10
48.894999999999996
20
-34.884999999999998
40
0.175
0
CIRCLE
8
BLACK
10
48.894999999999996
20
-37.4249999999999972
40
0.175
  0
ENDSEC
  0
EOF
