<?xml version="1.0" standalone="no"?>
 <!DOCTYPE svg PUBLIC "-//W3C//DTD SVG 1.1//EN" 
 "http://www.w3.org/Graphics/SVG/1.1/DTD/svg11.dtd"> 
<svg
  xmlns:svg="http://www.w3.org/2000/svg"
  xmlns="http://www.w3.org/2000/svg"
  xmlns:xlink="http://www.w3.org/1999/xlink"
  version="1.1"
  width="50.8000mm" height="70.1040mm" viewBox="0.0000 0.0000 50.8000 70.1040">
<title>SVG Image created as front.svg date 2025/09/13 13:59:01 </title>
  <desc>Image generated by PCBNEW </desc>
<g style="fill:#000000; fill-opacity:1.0000;stroke:#000000; stroke-opacity:1.0000;
stroke-linecap:round; stroke-linejoin:round;"
 transform="translate(0 0) scale(1 1)">
</g>
<g style="fill:#000000; fill-opacity:1.0000; 
stroke:#000000; stroke-width:0.0212; stroke-opacity:1; 
stroke-linecap:round; stroke-linejoin:round;">
<rect x="-5.050000" y="-5.050000" width="60.875000" height="79.925000" rx="0.000000" />
<path style="fill:none; 
stroke:#FFFFFF; stroke-width:0.0500; stroke-opacity:1; 
stroke-linecap:round; stroke-linejoin:round;fill:none"
d="M 50.8000,0.0000
0.0000,0.0000
0.0000,69.8500
50.8000,69.8500
Z" /> 
</g>
<g style="fill:#FFFFFF; fill-opacity:1.0000; stroke:none;">
<circle cx="20.3200" cy="23.4950" r="0.3810" /> 
</g>
<g style="fill:#FFFFFF; fill-opacity:1.0000; stroke:none;">
<circle cx="20.3200" cy="20.9550" r="0.3810" /> 
</g>
<g style="fill:#FFFFFF; fill-opacity:1.0000; stroke:none;">
<circle cx="10.7950" cy="19.6450" r="0.3810" /> 
</g>
<g style="fill:#FFFFFF; fill-opacity:1.0000; stroke:none;">
<circle cx="10.7950" cy="22.1450" r="0.3810" /> 
</g>
<g style="fill:#FFFFFF; fill-opacity:1.0000; stroke:none;">
<circle cx="20.3200" cy="13.2950" r="0.3810" /> 
</g>
<g style="fill:#FFFFFF; fill-opacity:1.0000; stroke:none;">
<circle cx="20.3200" cy="10.7950" r="0.3810" /> 
</g>
<g style="fill:#FFFFFF; fill-opacity:1.0000; stroke:none;">
<circle cx="20.3200" cy="8.2950" r="0.3810" /> 
</g>
<g style="fill:#FFFFFF; fill-opacity:1.0000; stroke:none;">
<circle cx="20.3200" cy="5.7950" r="0.3810" /> 
</g>
<g style="fill:#FFFFFF; fill-opacity:1.0000; stroke:none;">
<circle cx="11.4300" cy="13.2950" r="0.3810" /> 
</g>
<g style="fill:#FFFFFF; fill-opacity:1.0000; stroke:none;">
<circle cx="11.4300" cy="10.7950" r="0.3810" /> 
</g>
<g style="fill:#FFFFFF; fill-opacity:1.0000; stroke:none;">
<circle cx="11.4300" cy="8.2950" r="0.3810" /> 
</g>
<g style="fill:#FFFFFF; fill-opacity:1.0000; stroke:none;">
<circle cx="11.4300" cy="5.7950" r="0.3810" /> 
</g>
<g style="fill:#FFFFFF; fill-opacity:1.0000; stroke:none;">
<circle cx="10.7950" cy="28.6150" r="0.3810" /> 
</g>
<g style="fill:#FFFFFF; fill-opacity:1.0000; stroke:none;">
<circle cx="10.7950" cy="31.1150" r="0.3810" /> 
</g>
<g style="fill:#FFFFFF; fill-opacity:1.0000; stroke:none;">
<circle cx="10.7950" cy="33.6150" r="0.3810" /> 
</g>
<g style="fill:#FFFFFF; fill-opacity:1.0000; stroke:none;">
<circle cx="10.7950" cy="36.1150" r="0.3810" /> 
</g>
<g style="fill:#FFFFFF; fill-opacity:1.0000; stroke:none;">
<circle cx="1.9050" cy="6.9450" r="0.2540" /> 
</g>
<g style="fill:#FFFFFF; fill-opacity:1.0000; stroke:none;">
<circle cx="1.9050" cy="9.4850" r="0.2540" /> 
</g>
<g style="fill:#FFFFFF; fill-opacity:1.0000; stroke:none;">
<circle cx="1.9050" cy="12.0250" r="0.2540" /> 
</g>
<g style="fill:#FFFFFF; fill-opacity:1.0000; stroke:none;">
<circle cx="1.9050" cy="14.5650" r="0.2540" /> 
</g>
<g style="fill:#FFFFFF; fill-opacity:1.0000; stroke:none;">
<circle cx="1.9050" cy="17.1050" r="0.2540" /> 
</g>
<g style="fill:#FFFFFF; fill-opacity:1.0000; stroke:none;">
<circle cx="1.9050" cy="19.6450" r="0.2540" /> 
</g>
<g style="fill:#FFFFFF; fill-opacity:1.0000; stroke:none;">
<circle cx="1.9050" cy="22.1850" r="0.2540" /> 
</g>
<g style="fill:#FFFFFF; fill-opacity:1.0000; stroke:none;">
<circle cx="1.9050" cy="24.7250" r="0.2540" /> 
</g>
<g style="fill:#FFFFFF; fill-opacity:1.0000; stroke:none;">
<circle cx="1.9050" cy="27.2650" r="0.2540" /> 
</g>
<g style="fill:#FFFFFF; fill-opacity:1.0000; stroke:none;">
<circle cx="1.9050" cy="29.8050" r="0.2540" /> 
</g>
<g style="fill:#FFFFFF; fill-opacity:1.0000; stroke:none;">
<circle cx="1.9050" cy="32.3450" r="0.2540" /> 
</g>
<g style="fill:#FFFFFF; fill-opacity:1.0000; stroke:none;">
<circle cx="1.9050" cy="34.8850" r="0.2540" /> 
</g>
<g style="fill:#FFFFFF; fill-opacity:1.0000; stroke:none;">
<circle cx="1.9050" cy="37.4250" r="0.2540" /> 
<path style="fill:#FFFFFF; fill-opacity:1.0000; stroke:none;fill-rule:evenodd;"
d="M 19.4700,24.2200
19.4890,24.3157
19.5432,24.3968
19.6243,24.4510
19.7200,24.4700
20.9200,24.4700
21.0157,24.4510
21.0968,24.3968
21.1510,24.3157
21.1700,24.2200
21.1700,22.7700
21.1510,22.6743
21.0968,22.5932
21.0157,22.5390
20.9200,22.5200
19.7200,22.5200
19.6243,22.5390
19.5432,22.5932
19.4890,22.6743
19.4700,22.7700
Z" /> 
<path style="fill:#FFFFFF; fill-opacity:1.0000; stroke:none;fill-rule:evenodd;"
d="M 19.4700,21.6800
19.4890,21.7757
19.5432,21.8568
19.6243,21.9110
19.7200,21.9300
20.9200,21.9300
21.0157,21.9110
21.0968,21.8568
21.1510,21.7757
21.1700,21.6800
21.1700,20.2300
21.1510,20.1343
21.0968,20.0532
21.0157,19.9990
20.9200,19.9800
19.7200,19.9800
19.6243,19.9990
19.5432,20.0532
19.4890,20.1343
19.4700,20.2300
Z" /> 
<path style="fill:#FFFFFF; fill-opacity:1.0000; stroke:none;fill-rule:evenodd;"
d="M 10.0700,18.7950
9.9743,18.8140
9.8932,18.8682
9.8390,18.9493
9.8200,19.0450
9.8200,20.2450
9.8390,20.3407
9.8932,20.4218
9.9743,20.4760
10.0700,20.4950
11.5200,20.4950
11.6157,20.4760
11.6968,20.4218
11.7510,20.3407
11.7700,20.2450
11.7700,19.0450
11.7510,18.9493
11.6968,18.8682
11.6157,18.8140
11.5200,18.7950
Z" /> 
<path style="fill:#FFFFFF; fill-opacity:1.0000; stroke:none;fill-rule:evenodd;"
d="M 10.0700,21.2950
9.9743,21.3140
9.8932,21.3682
9.8390,21.4493
9.8200,21.5450
9.8200,22.7450
9.8390,22.8407
9.8932,22.9218
9.9743,22.9760
10.0700,22.9950
11.5200,22.9950
11.6157,22.9760
11.6968,22.9218
11.7510,22.8407
11.7700,22.7450
11.7700,21.5450
11.7510,21.4493
11.6968,21.3682
11.6157,21.3140
11.5200,21.2950
Z" /> 
<path style="fill:#FFFFFF; fill-opacity:1.0000; stroke:none;fill-rule:evenodd;"
d="M 21.0450,14.1450
21.1407,14.1260
21.2218,14.0718
21.2760,13.9907
21.2950,13.8950
21.2950,12.6950
21.2760,12.5993
21.2218,12.5182
21.1407,12.4640
21.0450,12.4450
19.5950,12.4450
19.4993,12.4640
19.4182,12.5182
19.3640,12.5993
19.3450,12.6950
19.3450,13.8950
19.3640,13.9907
19.4182,14.0718
19.4993,14.1260
19.5950,14.1450
Z" /> 
<path style="fill:#FFFFFF; fill-opacity:1.0000; stroke:none;fill-rule:evenodd;"
d="M 21.0450,11.6450
21.1407,11.6260
21.2218,11.5718
21.2760,11.4907
21.2950,11.3950
21.2950,10.1950
21.2760,10.0993
21.2218,10.0182
21.1407,9.9640
21.0450,9.9450
19.5950,9.9450
19.4993,9.9640
19.4182,10.0182
19.3640,10.0993
19.3450,10.1950
19.3450,11.3950
19.3640,11.4907
19.4182,11.5718
19.4993,11.6260
19.5950,11.6450
Z" /> 
<path style="fill:#FFFFFF; fill-opacity:1.0000; stroke:none;fill-rule:evenodd;"
d="M 21.0450,9.1450
21.1407,9.1260
21.2218,9.0718
21.2760,8.9907
21.2950,8.8950
21.2950,7.6950
21.2760,7.5993
21.2218,7.5182
21.1407,7.4640
21.0450,7.4450
19.5950,7.4450
19.4993,7.4640
19.4182,7.5182
19.3640,7.5993
19.3450,7.6950
19.3450,8.8950
19.3640,8.9907
19.4182,9.0718
19.4993,9.1260
19.5950,9.1450
Z" /> 
<path style="fill:#FFFFFF; fill-opacity:1.0000; stroke:none;fill-rule:evenodd;"
d="M 21.0450,6.6450
21.1407,6.6260
21.2218,6.5718
21.2760,6.4907
21.2950,6.3950
21.2950,5.1950
21.2760,5.0993
21.2218,5.0182
21.1407,4.9640
21.0450,4.9450
19.5950,4.9450
19.4993,4.9640
19.4182,5.0182
19.3640,5.0993
19.3450,5.1950
19.3450,6.3950
19.3640,6.4907
19.4182,6.5718
19.4993,6.6260
19.5950,6.6450
Z" /> 
<path style="fill:#FFFFFF; fill-opacity:1.0000; stroke:none;fill-rule:evenodd;"
d="M 12.1550,14.1450
12.2507,14.1260
12.3318,14.0718
12.3860,13.9907
12.4050,13.8950
12.4050,12.6950
12.3860,12.5993
12.3318,12.5182
12.2507,12.4640
12.1550,12.4450
10.7050,12.4450
10.6093,12.4640
10.5282,12.5182
10.4740,12.5993
10.4550,12.6950
10.4550,13.8950
10.4740,13.9907
10.5282,14.0718
10.6093,14.1260
10.7050,14.1450
Z" /> 
<path style="fill:#FFFFFF; fill-opacity:1.0000; stroke:none;fill-rule:evenodd;"
d="M 12.1550,11.6450
12.2507,11.6260
12.3318,11.5718
12.3860,11.4907
12.4050,11.3950
12.4050,10.1950
12.3860,10.0993
12.3318,10.0182
12.2507,9.9640
12.1550,9.9450
10.7050,9.9450
10.6093,9.9640
10.5282,10.0182
10.4740,10.0993
10.4550,10.1950
10.4550,11.3950
10.4740,11.4907
10.5282,11.5718
10.6093,11.6260
10.7050,11.6450
Z" /> 
<path style="fill:#FFFFFF; fill-opacity:1.0000; stroke:none;fill-rule:evenodd;"
d="M 12.1550,9.1450
12.2507,9.1260
12.3318,9.0718
12.3860,8.9907
12.4050,8.8950
12.4050,7.6950
12.3860,7.5993
12.3318,7.5182
12.2507,7.4640
12.1550,7.4450
10.7050,7.4450
10.6093,7.4640
10.5282,7.5182
10.4740,7.5993
10.4550,7.6950
10.4550,8.8950
10.4740,8.9907
10.5282,9.0718
10.6093,9.1260
10.7050,9.1450
Z" /> 
<path style="fill:#FFFFFF; fill-opacity:1.0000; stroke:none;fill-rule:evenodd;"
d="M 12.1550,6.6450
12.2507,6.6260
12.3318,6.5718
12.3860,6.4907
12.4050,6.3950
12.4050,5.1950
12.3860,5.0993
12.3318,5.0182
12.2507,4.9640
12.1550,4.9450
10.7050,4.9450
10.6093,4.9640
10.5282,5.0182
10.4740,5.0993
10.4550,5.1950
10.4550,6.3950
10.4740,6.4907
10.5282,6.5718
10.6093,6.6260
10.7050,6.6450
Z" /> 
<path style="fill:#FFFFFF; fill-opacity:1.0000; stroke:none;fill-rule:evenodd;"
d="M 10.0700,27.7650
9.9743,27.7840
9.8932,27.8382
9.8390,27.9193
9.8200,28.0150
9.8200,29.2150
9.8390,29.3107
9.8932,29.3918
9.9743,29.4460
10.0700,29.4650
11.5200,29.4650
11.6157,29.4460
11.6968,29.3918
11.7510,29.3107
11.7700,29.2150
11.7700,28.0150
11.7510,27.9193
11.6968,27.8382
11.6157,27.7840
11.5200,27.7650
Z" /> 
<path style="fill:#FFFFFF; fill-opacity:1.0000; stroke:none;fill-rule:evenodd;"
d="M 10.0700,30.2650
9.9743,30.2840
9.8932,30.3382
9.8390,30.4193
9.8200,30.5150
9.8200,31.7150
9.8390,31.8107
9.8932,31.8918
9.9743,31.9460
10.0700,31.9650
11.5200,31.9650
11.6157,31.9460
11.6968,31.8918
11.7510,31.8107
11.7700,31.7150
11.7700,30.5150
11.7510,30.4193
11.6968,30.3382
11.6157,30.2840
11.5200,30.2650
Z" /> 
<path style="fill:#FFFFFF; fill-opacity:1.0000; stroke:none;fill-rule:evenodd;"
d="M 10.0700,32.7650
9.9743,32.7840
9.8932,32.8382
9.8390,32.9193
9.8200,33.0150
9.8200,34.2150
9.8390,34.3107
9.8932,34.3918
9.9743,34.4460
10.0700,34.4650
11.5200,34.4650
11.6157,34.4460
11.6968,34.3918
11.7510,34.3107
11.7700,34.2150
11.7700,33.0150
11.7510,32.9193
11.6968,32.8382
11.6157,32.7840
11.5200,32.7650
Z" /> 
<path style="fill:#FFFFFF; fill-opacity:1.0000; stroke:none;fill-rule:evenodd;"
d="M 10.0700,35.2650
9.9743,35.2840
9.8932,35.3382
9.8390,35.4193
9.8200,35.5150
9.8200,36.7150
9.8390,36.8107
9.8932,36.8918
9.9743,36.9460
10.0700,36.9650
11.5200,36.9650
11.6157,36.9460
11.6968,36.8918
11.7510,36.8107
11.7700,36.7150
11.7700,35.5150
11.7510,35.4193
11.6968,35.3382
11.6157,35.2840
11.5200,35.2650
Z" /> 
<path style="fill:#FFFFFF; fill-opacity:1.0000; stroke:none;fill-rule:evenodd;"
d="M 3.6195,6.1830
3.6195,7.7070
6.7945,7.7070
6.7945,6.1830
Z" /> 
<path style="fill:#FFFFFF; fill-opacity:1.0000; stroke:none;fill-rule:evenodd;"
d="M 3.6195,8.7230
3.6195,10.2470
6.7945,10.2470
6.7945,8.7230
Z" /> 
<path style="fill:#FFFFFF; fill-opacity:1.0000; stroke:none;fill-rule:evenodd;"
d="M 3.6195,11.2630
3.6195,12.7870
6.7945,12.7870
6.7945,11.2630
Z" /> 
</g>
<g style="fill:#FFFFFF; fill-opacity:1.0000; stroke:none;">
<circle cx="1.9050" cy="12.0250" r="0.9525" /> 
<path style="fill:#FFFFFF; fill-opacity:1.0000; stroke:none;fill-rule:evenodd;"
d="M 3.6195,13.8030
3.6195,15.3270
6.7945,15.3270
6.7945,13.8030
Z" /> 
<path style="fill:#FFFFFF; fill-opacity:1.0000; stroke:none;fill-rule:evenodd;"
d="M 3.6195,16.3430
3.6195,17.8670
6.7945,17.8670
6.7945,16.3430
Z" /> 
<path style="fill:#FFFFFF; fill-opacity:1.0000; stroke:none;fill-rule:evenodd;"
d="M 3.6195,18.8830
3.6195,20.4070
6.7945,20.4070
6.7945,18.8830
Z" /> 
<path style="fill:#FFFFFF; fill-opacity:1.0000; stroke:none;fill-rule:evenodd;"
d="M 3.6195,21.4230
3.6195,22.9470
6.7945,22.9470
6.7945,21.4230
Z" /> 
<circle cx="1.9050" cy="22.1850" r="0.9525" /> 
<path style="fill:#FFFFFF; fill-opacity:1.0000; stroke:none;fill-rule:evenodd;"
d="M 3.6195,23.9630
3.6195,25.4870
6.7945,25.4870
6.7945,23.9630
Z" /> 
<path style="fill:#FFFFFF; fill-opacity:1.0000; stroke:none;fill-rule:evenodd;"
d="M 3.6195,26.5030
3.6195,28.0270
6.7945,28.0270
6.7945,26.5030
Z" /> 
<path style="fill:#FFFFFF; fill-opacity:1.0000; stroke:none;fill-rule:evenodd;"
d="M 3.6195,29.0430
3.6195,30.5670
6.7945,30.5670
6.7945,29.0430
Z" /> 
<circle cx="1.9050" cy="29.8050" r="0.9525" /> 
<path style="fill:#FFFFFF; fill-opacity:1.0000; stroke:none;fill-rule:evenodd;"
d="M 3.6195,31.5830
3.6195,33.1070
6.7945,33.1070
6.7945,31.5830
Z" /> 
<path style="fill:#FFFFFF; fill-opacity:1.0000; stroke:none;fill-rule:evenodd;"
d="M 3.6195,34.1230
3.6195,35.6470
6.7945,35.6470
6.7945,34.1230
Z" /> 
<path style="fill:#FFFFFF; fill-opacity:1.0000; stroke:none;fill-rule:evenodd;"
d="M 3.6195,36.6630
3.6195,38.1870
6.7945,38.1870
6.7945,36.6630
Z" /> 
<circle cx="17.1450" cy="36.1950" r="0.8255" /> 
</g>
<g style="fill:#FFFFFF; fill-opacity:1.0000; stroke:none;">
<circle cx="17.2150" cy="23.5000" r="0.8255" /> 
</g>
<g style="fill:#FFFFFF; fill-opacity:1.0000; stroke:none;">
<circle cx="15.2400" cy="1.9050" r="0.8255" /> 
</g>
<g style="fill:#FFFFFF; fill-opacity:1.0000; stroke:none;">
<circle cx="16.2727" cy="16.9077" r="0.8255" /> 
</g>
<g style="fill:#FFFFFF; fill-opacity:1.0000; stroke:none;">
<circle cx="15.8750" cy="10.7950" r="0.8255" /> 
</g>
<g style="fill:none; 
stroke:#FFFFFF; stroke-width:1.2700; stroke-opacity:1; 
stroke-linecap:round; stroke-linejoin:round;">
<path d="M13.2950 33.6150
L13.3350 33.6550
" />
<path d="M3.1750 38.7350
L4.4850 38.7350
" />
<path d="M20.3200 20.9550
L15.8750 20.9550
" />
<path d="M8.9300 33.6150
L8.2550 34.2900
" />
<path d="M15.8750 20.9550
L14.6050 22.2250
" />
<path d="M12.0650 17.1450
L4.4850 17.1450
" />
<path d="M4.4850 38.7350
L5.1200 38.1000
" />
<path d="M14.6050 22.2250
L14.6050 32.3850
" />
<path d="M8.2550 38.1000
L5.1200 38.1000
" />
<path d="M10.7950 33.6150
L13.2950 33.6150
" />
<path d="M8.2550 34.2900
L8.2550 38.1000
" />
<path d="M14.6050 32.3850
L13.3350 33.6550
" />
<path d="M4.4450 37.4250
L3.1750 38.6950
" />
<path d="M15.2400 8.2950
L11.4300 8.2950
" />
<path d="M4.4850 17.1450
L4.4450 17.1050
" />
<path d="M3.1750 38.6950
L3.1750 38.7350
" />
<path d="M10.7950 33.6150
L8.9300 33.6150
" />
<path d="M15.8750 20.9550
L12.0650 17.1450
" />
<path d="M20.3200 8.2950
L15.2400 8.2950
" />
<path d="M18.4200 23.4950
L20.3200 23.4950
" />
<path d="M18.4150 23.5000
L18.4200 23.4950
" />
<path d="M18.4100 23.4950
L18.4150 23.5000
" />
<path d="M17.2150 23.5000
L17.2100 23.4950
" />
<path d="M15.2400 1.9050
L15.2400 5.7950
" />
<path d="M17.2150 23.5000
L18.4100 23.4950
" />
<path d="M11.4300 5.7950
L20.3200 5.7950
" />
<path d="M10.8750 36.1950
L10.7950 36.1150
" />
<path d="M17.1450 36.1950
L10.8750 36.1950
" />
</g>
<g style="fill:none; 
stroke:#FFFFFF; stroke-width:0.5080; stroke-opacity:1; 
stroke-linecap:round; stroke-linejoin:round;">
<path d="M8.8900 31.1150
L10.7950 31.1150
" />
<path d="M4.4450 32.3450
L7.6600 32.3450
" />
<path d="M7.6600 32.3450
L8.8900 31.1150
" />
<path d="M4.4450 19.6450
L10.7950 19.6450
" />
<path d="M4.4850 22.1450
L10.7950 22.1450
" />
<path d="M4.4450 22.1850
L4.4850 22.1450
" />
<path d="M4.4450 9.4850
L7.5800 9.4850
" />
<path d="M7.5800 9.4850
L8.8900 10.7950
" />
<path d="M8.8900 10.7950
L11.4300 10.7950
" />
<path d="M8.9300 28.6150
L10.7950 28.6150
" />
<path d="M8.8900 28.5750
L8.9300 28.6150
" />
<path d="M4.4450 29.8050
L7.6600 29.8050
" />
<path d="M7.6600 29.8050
L8.8900 28.5750
" />
<path d="M8.8900 13.3350
L8.9300 13.2950
" />
<path d="M8.9300 13.2950
L11.4300 13.2950
" />
<path d="M4.4450 12.0250
L7.5800 12.0250
" />
<path d="M7.5800 12.0250
L8.8900 13.3350
" />
<path d="M16.2727 16.9077
L19.8855 13.2950
" />
<path d="M19.8855 13.2950
L20.3200 13.2950
" />
<path d="M20.2800 13.3350
L20.3200 13.2950
" />
<path d="M15.8750 10.7950
L20.3200 10.7950
" />
<path style="fill:#FFFFFF; fill-opacity:1.0000; stroke:none;fill-rule:evenodd;"
d="M 16.8774,0.6556
16.7674,0.7151
16.6826,0.8072
16.6324,0.9217
16.6221,1.0464
16.6528,1.1676
16.6579,1.1784
16.7549,1.4128
16.7550,1.4128
16.8133,1.6558
16.8133,1.6558
16.8133,1.6558
16.8329,1.9050
16.8133,2.1542
16.8133,2.1542
16.8133,2.1542
16.7550,2.3972
16.7549,2.3972
16.6968,2.5375
16.6664,2.6109
16.6382,2.7328
16.6375,2.7564
16.6375,4.0175
16.6581,4.1409
16.7176,4.2509
16.8097,4.3356
16.9242,4.3859
17.0175,4.3975
18.8440,4.3975
18.9673,4.3769
19.0231,4.3526
19.0298,4.3491
19.2057,4.2550
19.2057,4.2550
19.2057,4.2550
19.3965,4.1971
19.5453,4.1825
21.0947,4.1825
21.0948,4.1825
21.2435,4.1971
21.2435,4.1971
21.4343,4.2550
21.4343,4.2550
21.6102,4.3491
21.7644,4.4756
21.8909,4.6298
21.9850,4.8057
21.9850,4.8057
22.0428,4.9965
22.0575,5.1452
22.0575,6.4447
22.0575,6.4448
22.0429,6.5935
22.0428,6.5935
21.9850,6.7843
21.9850,6.7843
21.8909,6.9602
21.8909,6.9602
21.8909,6.9602
21.7644,7.1144
21.6102,7.2409
21.6102,7.2409
21.6102,7.2409
21.4943,7.3029
21.4343,7.3350
21.4343,7.3350
21.4343,7.3350
21.3744,7.3531
21.2435,7.3928
21.0947,7.4075
19.5453,7.4075
19.4891,7.4020
19.3965,7.3929
19.3965,7.3928
19.3965,7.3928
19.2057,7.3350
19.0298,7.2409
19.0298,7.2409
19.0231,7.2374
18.9046,7.1974
18.8440,7.1925
15.3500,7.1925
15.1300,7.1925
12.9060,7.1925
12.7827,7.2131
12.7269,7.2374
12.7202,7.2409
12.7202,7.2409
12.5443,7.3350
12.5443,7.3350
12.5443,7.3350
12.4844,7.3531
12.3535,7.3928
12.2047,7.4075
10.6553,7.4075
10.5991,7.4020
10.5065,7.3929
10.5065,7.3928
10.5065,7.3928
10.3157,7.3350
10.1830,7.2640
10.1398,7.2409
10.1398,7.2409
10.1398,7.2409
9.9856,7.1144
9.8591,6.9602
9.7650,6.7843
9.7072,6.5935
9.6925,6.4447
9.6925,5.1453
9.7072,4.9965
9.7650,4.8057
9.7882,4.7624
9.8591,4.6298
9.8591,4.6298
9.8591,4.6298
9.9856,4.4756
10.1398,4.3491
10.1398,4.3491
10.1398,4.3491
10.3157,4.2550
10.3157,4.2550
10.5065,4.1971
10.6553,4.1825
12.2047,4.1825
12.2048,4.1825
12.3535,4.1971
12.3535,4.1971
12.5443,4.2550
12.5443,4.2550
12.7202,4.3491
12.7269,4.3526
12.8454,4.3926
12.9060,4.3975
13.4625,4.3975
13.5859,4.3769
13.6959,4.3174
13.7806,4.2253
13.8309,4.1108
13.8425,4.0175
13.8425,2.7564
13.8219,2.6330
13.8136,2.6110
13.7251,2.3972
13.6667,2.1542
13.6471,1.9050
13.6667,1.6558
13.7251,1.4128
13.7251,1.4128
13.7251,1.4128
13.8264,1.1680
13.8242,1.1671
13.8555,1.0682
13.8524,0.9432
13.8088,0.8259
13.7296,0.7291
13.6232,0.6633
13.5012,0.6356
13.4792,0.6350
1.0150,0.6350
0.8916,0.6556
0.7816,0.7151
0.6969,0.8072
0.6466,0.9217
0.6350,1.0150
0.6350,5.8625
0.6556,5.9859
0.7151,6.0959
0.8072,6.1806
0.9217,6.2308
1.0464,6.2412
1.1676,6.2105
1.2412,6.1653
1.2415,6.1658
1.2534,6.1579
1.2561,6.1562
1.2570,6.1554
1.2570,6.1554
1.4235,6.0442
1.4235,6.0442
1.6085,5.9676
1.6085,5.9676
1.8049,5.9285
1.8049,5.9285
2.0051,5.9285
2.0051,5.9285
2.2015,5.9676
2.2015,5.9676
2.3865,6.0442
2.3933,6.0479
2.5119,6.0879
2.6370,6.0872
2.7551,6.0460
2.8534,5.9686
2.9169,5.8733
2.9237,5.8586
2.9237,5.8586
3.0173,5.7069
3.1434,5.5808
3.1434,5.5808
3.1434,5.5808
3.2488,5.5158
3.2951,5.4872
3.2951,5.4872
3.4643,5.4312
3.4643,5.4312
3.4941,5.4281
3.5687,5.4205
3.5687,5.4205
6.8453,5.4205
6.9497,5.4312
6.9497,5.4312
7.1189,5.4872
7.2706,5.5808
7.3967,5.7069
7.4903,5.8586
7.5463,6.0278
7.5463,6.0278
7.5570,6.1322
7.5570,7.7578
7.5463,7.8622
7.5463,7.8622
7.5014,7.9977
7.4822,8.1213
7.5041,8.2445
7.5648,8.3539
7.6577,8.4376
7.7728,8.4866
7.7880,8.4900
7.8765,8.5076
7.8765,8.5076
7.8765,8.5076
8.0615,8.5842
8.2280,8.6954
9.1997,9.6672
9.3016,9.7399
9.4214,9.7756
9.4684,9.7785
9.5573,9.7785
9.6807,9.7579
9.7907,9.6984
9.8510,9.6396
9.8591,9.6298
9.8591,9.6298
9.9856,9.4756
10.1398,9.3491
10.1398,9.3491
10.1398,9.3491
10.3157,9.2550
10.3157,9.2550
10.5065,9.1971
10.6553,9.1825
12.2047,9.1825
12.2048,9.1825
12.3535,9.1971
12.3535,9.1971
12.5443,9.2550
12.5443,9.2550
12.7202,9.3491
12.8744,9.4756
13.0009,9.6298
13.0950,9.8057
13.0950,9.8057
13.1528,9.9965
13.1675,10.1452
13.1675,11.4447
13.1675,11.4448
13.1529,11.5935
13.1528,11.5935
13.0950,11.7843
13.0950,11.7843
13.0514,11.8659
13.0114,11.9844
13.0120,12.1095
13.0514,12.2241
13.0950,12.3057
13.0950,12.3057
13.1528,12.4965
13.1675,12.6452
13.1675,13.9447
13.1675,13.9448
13.1529,14.0935
13.1528,14.0935
13.0950,14.2843
13.0950,14.2843
13.0009,14.4602
13.0009,14.4602
13.0009,14.4602
12.8744,14.6144
12.7202,14.7409
12.7202,14.7409
12.7202,14.7409
12.5876,14.8118
12.5443,14.8350
12.5443,14.8350
12.5443,14.8350
12.4844,14.8531
12.3535,14.8928
12.2047,14.9075
10.6553,14.9075
10.5991,14.9020
10.5065,14.8929
10.5065,14.8928
10.5065,14.8928
10.3157,14.8350
10.1398,14.7409
9.9856,14.6144
9.8591,14.4602
9.8591,14.4602
9.8510,14.4504
9.7568,14.3681
9.6410,14.3208
9.5573,14.3115
9.2286,14.3115
9.1545,14.3188
9.1442,14.3208
8.9901,14.3515
8.9901,14.3515
8.7899,14.3515
8.7899,14.3515
8.7899,14.3515
8.5935,14.3124
8.4085,14.2358
8.2420,14.1246
8.2057,14.0882
8.1039,14.0156
7.9840,13.9799
7.8590,13.9850
7.7425,14.0305
7.6470,14.1114
7.5830,14.2188
7.5573,14.3412
7.5570,14.3569
7.5570,15.3778
7.5463,15.4822
7.5010,15.6190
7.4903,15.6514
7.3967,15.8031
7.3967,15.8031
7.3967,15.8031
7.2706,15.9292
7.1189,16.0228
6.9497,16.0788
6.9497,16.0788
6.9497,16.0788
6.9497,16.0788
6.8453,16.0895
3.5687,16.0895
3.4643,16.0788
3.2951,16.0228
3.2644,16.0038
3.1486,15.9566
3.0237,15.9495
2.9032,15.9834
2.8003,16.0545
2.7261,16.1552
2.6886,16.2745
2.6918,16.3995
2.7355,16.5168
2.7489,16.5384
2.8058,16.6235
2.8824,16.8085
2.8824,16.8085
2.9215,17.0049
2.9215,17.2051
2.8824,17.4015
2.8824,17.4015
2.8058,17.5865
2.8058,17.5865
2.7489,17.6716
2.6975,17.7856
2.6859,17.9102
2.7153,18.0318
2.7827,18.1372
2.8806,18.2150
2.9985,18.2569
3.1236,18.2582
3.2423,18.2188
3.2644,18.2062
3.2802,18.1964
3.2951,18.1872
3.2951,18.1872
3.2951,18.1872
3.4643,18.1312
3.4643,18.1312
3.4941,18.1281
3.5687,18.1205
3.5687,18.1205
6.8453,18.1205
6.9497,18.1312
6.9497,18.1312
7.1189,18.1872
7.2706,18.2808
7.3967,18.4069
7.4221,18.4480
7.5044,18.5422
7.6128,18.6046
7.7356,18.6284
7.7455,18.6285
8.9223,18.6285
9.0457,18.6079
9.1557,18.5484
9.2160,18.4896
9.2241,18.4798
9.2241,18.4798
9.3506,18.3256
9.5048,18.1991
9.5048,18.1991
9.5048,18.1991
9.6807,18.1050
9.6807,18.1050
9.8715,18.0471
10.0203,18.0325
11.5697,18.0325
11.5698,18.0325
11.7185,18.0471
11.7185,18.0471
11.9093,18.1050
11.9093,18.1050
12.0852,18.1991
12.2394,18.3256
12.3659,18.4798
12.4600,18.6557
12.4600,18.6557
12.5178,18.8465
12.5325,18.9952
12.5325,20.2947
12.5325,20.2948
12.5179,20.4435
12.5178,20.4435
12.4600,20.6343
12.4600,20.6343
12.4164,20.7159
12.3764,20.8344
12.3770,20.9595
12.4164,21.0741
12.4600,21.1557
12.4600,21.1557
12.5178,21.3465
12.5325,21.4952
12.5325,22.7947
12.5325,22.7948
12.5179,22.9435
12.5178,22.9435
12.4600,23.1343
12.4600,23.1343
12.3659,23.3102
12.3659,23.3102
12.3659,23.3102
12.2394,23.4644
12.0852,23.5909
12.0852,23.5909
12.0852,23.5909
11.9961,23.6386
11.9093,23.6850
11.9093,23.6850
11.9093,23.6850
11.8494,23.7031
11.7185,23.7429
11.5697,23.7575
10.0203,23.7575
9.9359,23.7492
9.8715,23.7429
9.8715,23.7429
9.8715,23.7429
9.6807,23.6850
9.5048,23.5909
9.3506,23.4644
9.2241,23.3102
9.2241,23.3102
9.2160,23.3004
9.1218,23.2181
9.0060,23.1708
8.9223,23.1615
7.8584,23.1615
7.7350,23.1821
7.6250,23.2416
7.5403,23.3337
7.4900,23.4482
7.4797,23.5729
7.4977,23.6610
7.5463,23.8078
7.5463,23.8078
7.5570,23.9122
7.5570,25.5378
7.5463,25.6422
7.4903,25.8114
7.4903,25.8114
7.4903,25.8114
7.4809,25.8315
7.4847,25.8333
7.4528,25.9113
7.4458,26.0362
7.4796,26.1567
7.4828,26.1625
7.4903,26.1786
7.5463,26.3478
7.5463,26.3478
7.5570,26.4522
7.5570,27.5530
7.5776,27.6764
7.6371,27.7865
7.7292,27.8712
7.8437,27.9214
7.9684,27.9318
8.0896,27.9010
8.1944,27.8326
8.2057,27.8218
8.2420,27.7854
8.4085,27.6742
8.4085,27.6742
8.4085,27.6742
8.5935,27.5976
8.5935,27.5976
8.7899,27.5585
8.9551,27.5585
9.0785,27.5379
9.1885,27.4784
9.2488,27.4196
9.3506,27.2956
9.5048,27.1691
9.5048,27.1691
9.5048,27.1691
9.6807,27.0750
9.6807,27.0750
9.8715,27.0171
10.0203,27.0025
11.5697,27.0025
11.5698,27.0025
11.7185,27.0171
11.7185,27.0171
11.9093,27.0750
11.9093,27.0750
12.0852,27.1691
12.2394,27.2956
12.3659,27.4498
12.4600,27.6257
12.4600,27.6257
12.5178,27.8165
12.5325,27.9652
12.5325,29.2647
12.5325,29.2648
12.5179,29.4135
12.5178,29.4135
12.4600,29.6043
12.4600,29.6043
12.4164,29.6859
12.3764,29.8044
12.3770,29.9295
12.4164,30.0441
12.4600,30.1257
12.4600,30.1257
12.5178,30.3165
12.5325,30.4652
12.5325,31.7647
12.5325,31.7648
12.5179,31.9135
12.5178,31.9135
12.4600,32.1043
12.4600,32.1043
12.3659,32.2802
12.3659,32.2802
12.3659,32.2802
12.2394,32.4344
12.0852,32.5609
12.0852,32.5609
12.0852,32.5609
11.9526,32.6318
11.9093,32.6550
11.9093,32.6550
11.9093,32.6550
11.8494,32.6731
11.7185,32.7128
11.5697,32.7275
10.0203,32.7275
9.9641,32.7220
9.8715,32.7129
9.8715,32.7128
9.8715,32.7128
9.6807,32.6550
9.5048,32.5609
9.4287,32.4985
9.3203,32.4362
9.1975,32.4124
9.0736,32.4298
8.9621,32.4865
8.9190,32.5236
8.4496,32.9930
8.4496,32.9930
8.3080,33.1346
8.3080,33.1346
8.1415,33.2458
8.1018,33.2622
7.9565,33.3224
7.9565,33.3224
7.7930,33.3550
7.6760,33.3992
7.5797,33.4791
7.5145,33.5859
7.4876,33.7080
7.5018,33.8323
7.5064,33.8472
7.5463,33.9678
7.5463,33.9678
7.5570,34.0722
7.5570,35.6978
7.5463,35.8022
7.4988,35.9458
7.4903,35.9714
7.3967,36.1231
7.3967,36.1231
7.3967,36.1231
7.2706,36.2492
7.1189,36.3428
6.9497,36.3988
6.9497,36.3988
6.9497,36.3988
6.9497,36.3988
6.8453,36.4095
3.5687,36.4095
3.4643,36.3988
3.2951,36.3428
3.2644,36.3238
3.1486,36.2766
3.0237,36.2695
2.9032,36.3034
2.8003,36.3745
2.7261,36.4752
2.6886,36.5945
2.6918,36.7195
2.7355,36.8368
2.7489,36.8584
2.8058,36.9435
2.8824,37.1285
2.8824,37.1285
2.9215,37.3249
2.9215,37.5251
2.8824,37.7215
2.8824,37.7215
2.8549,37.7879
2.8058,37.9065
2.6946,38.0730
2.5530,38.2146
2.3865,38.3258
2.2698,38.3741
2.2015,38.4024
2.2015,38.4024
2.2015,38.4024
2.0051,38.4415
2.0051,38.4415
1.8049,38.4415
1.8049,38.4415
1.6085,38.4024
1.4235,38.3258
1.2570,38.2146
1.2570,38.2146
1.2561,38.2138
1.2545,38.2129
1.2415,38.2042
1.2409,38.2051
1.1476,38.1514
1.0248,38.1277
0.9009,38.1451
0.7894,38.2017
0.7024,38.2915
0.6492,38.4048
0.6350,38.5075
0.6350,68.8350
0.6556,68.9584
0.7151,69.0684
0.8072,69.1531
0.9217,69.2034
1.0150,69.2150
49.7850,69.2150
49.9084,69.1944
50.0184,69.1349
50.1031,69.0428
50.1534,68.9283
50.1650,68.8350
50.1650,36.1950
18.7379,36.1950
18.7183,36.4442
18.7183,36.4442
18.7183,36.4442
18.6599,36.6872
18.6599,36.6872
18.5643,36.9182
18.5643,36.9182
18.5643,36.9182
18.4502,37.1043
18.4337,37.1313
18.2714,37.3213
18.2713,37.3214
18.0813,37.4837
18.0813,37.4837
17.8682,37.6143
17.8682,37.6143
17.8682,37.6143
17.6372,37.7099
17.6372,37.7099
17.6372,37.7099
17.6372,37.7099
17.6372,37.7099
17.6251,37.7129
17.3942,37.7683
17.1450,37.7879
16.8958,37.7683
16.6528,37.7099
16.6528,37.7099
16.4391,37.6214
16.3172,37.5932
16.2936,37.5925
12.1214,37.5925
11.9980,37.6131
11.9422,37.6374
11.9093,37.6550
11.9093,37.6550
11.9093,37.6550
11.8494,37.6731
11.7185,37.7128
11.5697,37.7275
10.0203,37.7275
9.9594,37.7215
9.8715,37.7129
9.8715,37.7128
9.8715,37.7128
9.6807,37.6550
9.5048,37.5609
9.3506,37.4344
9.2241,37.2802
9.1300,37.1043
9.0721,36.9135
9.0575,36.7647
9.0575,35.4653
9.0721,35.3165
9.1300,35.1257
9.2052,34.9851
9.2241,34.9498
9.2241,34.9498
9.2241,34.9498
9.3506,34.7956
9.5048,34.6691
9.5048,34.6691
9.5048,34.6691
9.6807,34.5750
9.6807,34.5750
9.8715,34.5172
10.0203,34.5025
11.5697,34.5025
11.5698,34.5025
11.7185,34.5171
11.7185,34.5172
11.9093,34.5750
11.9093,34.5750
12.0852,34.6691
12.0852,34.6691
12.1366,34.7112
12.2451,34.7736
12.3679,34.7974
12.3777,34.7975
16.2936,34.7975
16.4170,34.7769
16.4391,34.7686
16.6528,34.6801
16.6528,34.6801
16.8958,34.6217
16.8958,34.6217
16.8958,34.6217
17.1450,34.6021
17.3942,34.6217
17.3942,34.6217
17.3942,34.6217
17.6372,34.6801
17.6372,34.6801
17.8682,34.7757
17.8682,34.7757
18.0813,34.9063
18.2713,35.0686
18.2714,35.0687
18.4337,35.2587
18.5643,35.4718
18.5643,35.4718
18.6599,35.7028
18.6599,35.7028
18.7183,35.9458
18.7183,35.9458
18.7183,35.9458
18.7379,36.1950
50.1650,36.1950
50.1650,22.7202
21.9325,22.7202
21.9325,24.2697
21.9325,24.2698
21.9179,24.4185
21.9178,24.4185
21.8600,24.6093
21.8600,24.6093
21.7659,24.7852
21.7659,24.7852
21.7659,24.7852
21.6394,24.9394
21.4852,25.0659
21.4852,25.0659
21.4852,25.0659
21.3526,25.1368
21.3093,25.1600
21.3093,25.1600
21.3093,25.1600
21.2494,25.1781
21.1185,25.2178
20.9697,25.2325
19.6703,25.2325
19.6141,25.2270
19.5215,25.2179
19.5215,25.2178
19.5215,25.2178
19.3307,25.1600
19.1548,25.0659
19.0485,24.9788
18.9401,24.9164
18.8173,24.8926
18.8075,24.8925
18.5865,24.8925
18.5270,24.8972
18.5250,24.8975
18.5250,24.8975
18.3050,24.8975
18.3050,24.8975
18.3050,24.8975
18.2901,24.8963
18.2901,24.8966
18.2463,24.8932
18.0734,24.8939
17.9501,24.9150
17.9296,24.9228
17.7072,25.0149
17.7072,25.0149
17.7072,25.0149
17.4642,25.0733
17.2150,25.0929
16.9658,25.0733
16.7228,25.0149
16.4918,24.9193
16.2787,24.7887
16.0886,24.6264
15.9263,24.4363
15.7957,24.2232
15.7001,23.9922
15.6417,23.7492
15.6221,23.5000
15.6417,23.2508
15.7001,23.0078
15.7001,23.0078
15.7001,23.0078
15.7957,22.7768
15.7957,22.7768
15.7957,22.7768
15.9263,22.5637
15.9263,22.5637
16.0886,22.3737
16.0887,22.3736
16.2787,22.2113
16.2787,22.2113
16.4918,22.0807
16.4918,22.0807
16.4918,22.0807
16.4918,22.0807
16.7228,21.9851
16.7228,21.9850
16.9658,21.9267
16.9658,21.9267
16.9658,21.9267
17.2150,21.9071
17.4642,21.9267
17.4642,21.9267
17.4642,21.9267
17.7072,21.9850
17.7072,21.9851
17.9124,22.0700
18.0343,22.0982
18.0594,22.0990
18.2799,22.0980
18.2927,22.0975
18.3000,22.0975
18.3100,22.0975
18.4062,22.0975
18.4078,22.0975
18.5214,22.0970
18.5343,22.0975
18.8075,22.0975
18.9308,22.0769
19.0409,22.0174
19.0485,22.0112
19.1548,21.9241
19.1548,21.9241
19.3307,21.8300
19.3307,21.8300
19.5215,21.7721
19.6703,21.7575
20.9697,21.7575
20.9698,21.7575
21.1185,21.7721
21.1185,21.7721
21.3093,21.8300
21.3093,21.8300
21.4852,21.9241
21.6394,22.0506
21.7659,22.2048
21.8600,22.3807
21.8600,22.3807
21.9178,22.5715
21.9325,22.7202
50.1650,22.7202
50.1650,10.1452
22.0575,10.1452
22.0575,11.4447
22.0575,11.4448
22.0429,11.5935
22.0428,11.5935
21.9850,11.7843
21.9850,11.7843
21.9414,11.8659
21.9014,11.9844
21.9020,12.1095
21.9414,12.2241
21.9850,12.3057
21.9850,12.3057
22.0428,12.4965
22.0575,12.6452
22.0575,13.9447
22.0575,13.9448
22.0429,14.0935
22.0428,14.0935
21.9850,14.2843
21.9850,14.2843
21.8909,14.4602
21.8909,14.4602
21.8909,14.4602
21.7644,14.6144
21.6102,14.7409
21.6102,14.7409
21.6102,14.7409
21.4776,14.8118
21.4343,14.8350
21.4343,14.8350
21.4343,14.8350
21.3744,14.8531
21.2435,14.8928
21.0947,14.9075
19.8679,14.9075
19.7445,14.9281
19.6345,14.9876
19.5992,15.0188
17.9769,16.6411
17.9043,16.7429
17.8686,16.8628
17.8662,16.9001
17.8656,16.9077
17.8656,16.9077
17.8460,17.1569
17.8460,17.1569
17.8460,17.1569
17.7877,17.4000
17.7877,17.4000
17.6920,17.6309
17.6920,17.6309
17.6920,17.6309
17.6172,17.7530
17.5614,17.8440
17.3991,18.0341
17.3991,18.0341
17.2090,18.1964
17.2090,18.1964
16.9959,18.3270
16.9959,18.3270
16.9959,18.3270
16.7650,18.4227
16.7650,18.4227
16.7650,18.4227
16.5219,18.4810
16.2727,18.5006
16.0235,18.4810
15.7805,18.4227
15.7423,18.4069
15.7182,18.3969
15.5496,18.3270
15.3364,18.1964
15.2030,18.0824
15.1464,18.0341
15.1464,18.0341
15.1464,18.0341
15.1450,18.0325
14.9840,17.8440
14.9840,17.8440
14.8534,17.6309
14.7578,17.4000
14.6994,17.1569
14.6798,16.9077
14.6994,16.6585
14.7578,16.4155
14.7578,16.4155
14.7578,16.4155
14.8534,16.1846
14.8534,16.1846
14.8534,16.1846
14.9840,15.9714
14.9967,15.9566
15.1464,15.7814
15.1464,15.7814
15.3364,15.6190
15.4614,15.5424
15.5496,15.4884
15.5496,15.4884
15.5496,15.4884
15.5496,15.4884
15.7805,15.3928
15.7805,15.3928
16.0235,15.3344
16.0235,15.3344
16.0235,15.3344
16.2727,15.3148
16.2727,15.3148
16.2876,15.3136
16.2875,15.3120
16.3941,15.2942
16.5041,15.2347
16.5394,15.2035
18.4712,13.2717
18.5439,13.1699
18.5796,13.0500
18.5825,13.0030
18.5825,12.6453
18.5825,12.6452
18.5971,12.4965
18.5971,12.4965
18.5971,12.4965
18.6550,12.3057
18.6550,12.3057
18.6562,12.3018
18.6723,12.1778
18.6473,12.0552
18.5838,11.9474
18.4888,11.8661
18.3725,11.8200
18.2926,11.8115
17.2686,11.8115
17.1452,11.8321
17.0352,11.8916
17.0071,11.9164
16.8446,12.0552
16.8113,12.0837
16.5982,12.2143
16.5982,12.2143
16.5982,12.2143
16.3672,12.3099
16.3672,12.3099
16.3672,12.3099
16.1242,12.3683
15.8750,12.3879
15.6258,12.3683
15.3828,12.3099
15.3724,12.3057
15.3068,12.2785
15.1518,12.2143
14.9387,12.0837
14.7486,11.9214
14.5863,11.7313
14.4557,11.5182
14.3601,11.2872
14.3017,11.0442
14.2821,10.7950
14.3017,10.5458
14.3601,10.3028
14.3601,10.3028
14.3601,10.3028
14.4557,10.0718
14.4557,10.0718
14.4557,10.0718
14.5863,9.8587
14.5998,9.8429
14.7486,9.6687
14.7487,9.6686
14.9387,9.5063
15.1369,9.3849
15.1518,9.3757
15.1518,9.3757
15.1518,9.3757
15.1518,9.3757
15.3828,9.2801
15.3828,9.2800
15.6258,9.2217
15.6258,9.2217
15.6258,9.2217
15.8750,9.2021
16.1242,9.2217
16.1242,9.2217
16.1242,9.2217
16.3672,9.2800
16.3672,9.2801
16.5982,9.3757
16.5982,9.3757
16.8113,9.5063
17.0127,9.6783
17.0138,9.6771
17.1017,9.7399
17.2216,9.7756
17.2686,9.7785
18.4473,9.7785
18.5707,9.7579
18.6807,9.6984
18.7410,9.6396
18.7491,9.6298
18.7491,9.6298
18.8756,9.4756
19.0298,9.3491
19.0298,9.3491
19.0298,9.3491
19.2057,9.2550
19.2057,9.2550
19.3965,9.1971
19.5453,9.1825
21.0947,9.1825
21.0948,9.1825
21.2435,9.1971
21.2435,9.1971
21.4343,9.2550
21.4343,9.2550
21.6102,9.3491
21.7644,9.4756
21.8909,9.6298
21.9850,9.8057
21.9850,9.8057
22.0428,9.9965
22.0575,10.1452
50.1650,10.1452
50.1650,1.0150
50.1444,0.8916
50.0849,0.7816
49.9928,0.6969
49.8783,0.6466
49.7850,0.6350
17.0008,0.6350
Z" /> 
<path style="fill:#FFFFFF; fill-opacity:1.0000; stroke:none;fill-rule:evenodd;"
d="M 0.9009,27.9851
0.7894,28.0417
0.7024,28.1315
0.6492,28.2448
0.6350,28.3475
0.6350,31.2625
0.6556,31.3859
0.7151,31.4959
0.8072,31.5806
0.9217,31.6308
1.0464,31.6412
1.1676,31.6105
1.2412,31.5653
1.2415,31.5658
1.2534,31.5579
1.2561,31.5562
1.2570,31.5554
1.2570,31.5554
1.4235,31.4442
1.4235,31.4442
1.6085,31.3676
1.6085,31.3676
1.8049,31.3285
1.8049,31.3285
2.0051,31.3285
2.0051,31.3285
2.2015,31.3676
2.2015,31.3676
2.3865,31.4442
2.3933,31.4479
2.5119,31.4879
2.6370,31.4872
2.7551,31.4460
2.8534,31.3686
2.9169,31.2733
2.9331,31.2385
2.9293,31.2367
2.9611,31.1588
2.9683,31.0339
2.9344,30.9134
2.9313,30.9076
2.9237,30.8914
2.8677,30.7222
2.8677,30.7222
2.8677,30.7222
2.8570,30.6178
2.8570,28.9922
2.8677,28.8878
2.9237,28.7186
2.9237,28.7186
2.9237,28.7186
2.9331,28.6985
2.9293,28.6967
2.9611,28.6188
2.9683,28.4939
2.9344,28.3734
2.9313,28.3676
2.9237,28.3514
2.9237,28.3514
2.9237,28.3514
2.9169,28.3367
2.8461,28.2336
2.7456,28.1590
2.6264,28.1211
2.5013,28.1240
2.3933,28.1622
2.3865,28.1658
2.3865,28.1658
2.2557,28.2200
2.2015,28.2424
2.2015,28.2424
2.2015,28.2424
2.0051,28.2815
2.0051,28.2815
1.8049,28.2815
1.8049,28.2815
1.6085,28.2424
1.4235,28.1658
1.2570,28.0546
1.2570,28.0546
1.2561,28.0538
1.2545,28.0529
1.2415,28.0442
1.2409,28.0451
1.1476,27.9914
1.0248,27.9677
Z" /> 
<path style="fill:#FFFFFF; fill-opacity:1.0000; stroke:none;fill-rule:evenodd;"
d="M 0.9009,20.3651
0.7894,20.4217
0.7024,20.5115
0.6492,20.6248
0.6350,20.7275
0.6350,23.6425
0.6556,23.7659
0.7151,23.8759
0.8072,23.9606
0.9217,24.0108
1.0464,24.0212
1.1676,23.9905
1.2412,23.9453
1.2415,23.9458
1.2534,23.9379
1.2561,23.9362
1.2570,23.9354
1.2570,23.9354
1.4235,23.8242
1.4235,23.8242
1.6085,23.7476
1.6085,23.7476
1.8049,23.7085
1.8049,23.7085
2.0051,23.7085
2.0051,23.7085
2.2015,23.7476
2.2015,23.7476
2.3865,23.8242
2.3933,23.8279
2.5119,23.8679
2.6370,23.8672
2.7551,23.8260
2.8534,23.7486
2.9169,23.6533
2.9331,23.6185
2.9293,23.6167
2.9611,23.5388
2.9683,23.4139
2.9344,23.2934
2.9313,23.2876
2.9237,23.2714
2.9169,23.2508
2.8677,23.1022
2.8570,22.9978
2.8570,21.3722
2.8677,21.2678
2.9237,21.0986
2.9237,21.0986
2.9237,21.0986
2.9331,21.0785
2.9293,21.0767
2.9611,20.9988
2.9683,20.8739
2.9344,20.7534
2.9313,20.7476
2.9237,20.7314
2.9237,20.7314
2.9237,20.7314
2.9169,20.7167
2.8461,20.6136
2.7456,20.5390
2.6264,20.5011
2.5013,20.5040
2.3933,20.5422
2.3865,20.5458
2.3865,20.5458
2.2557,20.6000
2.2015,20.6224
2.2015,20.6224
2.2015,20.6224
2.0051,20.6615
2.0051,20.6615
1.8049,20.6615
1.8049,20.6615
1.6085,20.6224
1.4235,20.5458
1.2570,20.4346
1.2570,20.4346
1.2561,20.4338
1.2545,20.4329
1.2415,20.4242
1.2409,20.4251
1.1476,20.3714
1.0248,20.3477
Z" /> 
<path style="fill:#FFFFFF; fill-opacity:1.0000; stroke:none;fill-rule:evenodd;"
d="M 0.9009,10.2051
0.7894,10.2617
0.7024,10.3515
0.6492,10.4648
0.6350,10.5675
0.6350,13.4825
0.6556,13.6059
0.7151,13.7159
0.8072,13.8006
0.9217,13.8508
1.0464,13.8612
1.1676,13.8305
1.2412,13.7853
1.2415,13.7858
1.2534,13.7779
1.2561,13.7762
1.2570,13.7754
1.2570,13.7754
1.4235,13.6642
1.4235,13.6642
1.6085,13.5876
1.6085,13.5876
1.8049,13.5485
1.8049,13.5485
2.0051,13.5485
2.0051,13.5485
2.2015,13.5876
2.2015,13.5876
2.3865,13.6642
2.3933,13.6679
2.5119,13.7079
2.6370,13.7072
2.7551,13.6660
2.8534,13.5886
2.9169,13.4933
2.9331,13.4585
2.9293,13.4567
2.9611,13.3788
2.9683,13.2539
2.9344,13.1334
2.9313,13.1276
2.9237,13.1114
2.8677,12.9422
2.8677,12.9422
2.8677,12.9422
2.8570,12.8378
2.8570,11.2122
2.8677,11.1078
2.9237,10.9386
2.9237,10.9386
2.9237,10.9386
2.9331,10.9185
2.9293,10.9167
2.9611,10.8388
2.9683,10.7139
2.9344,10.5934
2.9313,10.5876
2.9237,10.5714
2.9237,10.5714
2.9237,10.5714
2.9169,10.5567
2.8461,10.4536
2.7456,10.3790
2.6264,10.3411
2.5013,10.3440
2.3933,10.3822
2.3865,10.3858
2.3865,10.3858
2.2557,10.4400
2.2015,10.4624
2.2015,10.4624
2.2015,10.4624
2.0051,10.5015
2.0051,10.5015
1.8049,10.5015
1.8049,10.5015
1.6085,10.4624
1.4235,10.3858
1.2570,10.2746
1.2570,10.2746
1.2561,10.2738
1.2545,10.2729
1.2415,10.2642
1.2409,10.2651
1.1476,10.2114
1.0248,10.1877
Z" /> 
</g>
<g style="fill:#000000; fill-opacity:1.0000; stroke:none;">
<circle cx="17.1450" cy="36.1950" r="0.2540" /> 
</g>
<g style="fill:#000000; fill-opacity:1.0000; stroke:none;">
<circle cx="17.2150" cy="23.5000" r="0.2540" /> 
</g>
<g style="fill:#000000; fill-opacity:1.0000; stroke:none;">
<circle cx="15.2400" cy="1.9050" r="0.2540" /> 
</g>
<g style="fill:#000000; fill-opacity:1.0000; stroke:none;">
<circle cx="16.2727" cy="16.9077" r="0.2540" /> 
</g>
<g style="fill:#000000; fill-opacity:1.0000; stroke:none;">
<circle cx="15.8750" cy="10.7950" r="0.2540" /> 
</g>
<g style="fill:#000000; fill-opacity:1.0000; stroke:none;">
<circle cx="20.3200" cy="23.4950" r="0.3810" /> 
</g>
<g style="fill:#000000; fill-opacity:1.0000; stroke:none;">
<circle cx="20.3200" cy="20.9550" r="0.3810" /> 
</g>
<g style="fill:#000000; fill-opacity:1.0000; stroke:none;">
<circle cx="10.7950" cy="19.6450" r="0.3810" /> 
</g>
<g style="fill:#000000; fill-opacity:1.0000; stroke:none;">
<circle cx="10.7950" cy="22.1450" r="0.3810" /> 
</g>
<g style="fill:#000000; fill-opacity:1.0000; stroke:none;">
<circle cx="20.3200" cy="13.2950" r="0.3810" /> 
</g>
<g style="fill:#000000; fill-opacity:1.0000; stroke:none;">
<circle cx="20.3200" cy="10.7950" r="0.3810" /> 
</g>
<g style="fill:#000000; fill-opacity:1.0000; stroke:none;">
<circle cx="20.3200" cy="8.2950" r="0.3810" /> 
</g>
<g style="fill:#000000; fill-opacity:1.0000; stroke:none;">
<circle cx="20.3200" cy="5.7950" r="0.3810" /> 
</g>
<g style="fill:#000000; fill-opacity:1.0000; stroke:none;">
<circle cx="11.4300" cy="13.2950" r="0.3810" /> 
</g>
<g style="fill:#000000; fill-opacity:1.0000; stroke:none;">
<circle cx="11.4300" cy="10.7950" r="0.3810" /> 
</g>
<g style="fill:#000000; fill-opacity:1.0000; stroke:none;">
<circle cx="11.4300" cy="8.2950" r="0.3810" /> 
</g>
<g style="fill:#000000; fill-opacity:1.0000; stroke:none;">
<circle cx="11.4300" cy="5.7950" r="0.3810" /> 
</g>
<g style="fill:#000000; fill-opacity:1.0000; stroke:none;">
<circle cx="10.7950" cy="28.6150" r="0.3810" /> 
</g>
<g style="fill:#000000; fill-opacity:1.0000; stroke:none;">
<circle cx="10.7950" cy="31.1150" r="0.3810" /> 
</g>
<g style="fill:#000000; fill-opacity:1.0000; stroke:none;">
<circle cx="10.7950" cy="33.6150" r="0.3810" /> 
</g>
<g style="fill:#000000; fill-opacity:1.0000; stroke:none;">
<circle cx="10.7950" cy="36.1150" r="0.3810" /> 
</g>
<g style="fill:#000000; fill-opacity:1.0000; stroke:none;">
<circle cx="1.9050" cy="6.9450" r="0.2540" /> 
</g>
<g style="fill:#000000; fill-opacity:1.0000; stroke:none;">
<circle cx="1.9050" cy="9.4850" r="0.2540" /> 
</g>
<g style="fill:#000000; fill-opacity:1.0000; stroke:none;">
<circle cx="1.9050" cy="12.0250" r="0.2540" /> 
</g>
<g style="fill:#000000; fill-opacity:1.0000; stroke:none;">
<circle cx="1.9050" cy="14.5650" r="0.2540" /> 
</g>
<g style="fill:#000000; fill-opacity:1.0000; stroke:none;">
<circle cx="1.9050" cy="17.1050" r="0.2540" /> 
</g>
<g style="fill:#000000; fill-opacity:1.0000; stroke:none;">
<circle cx="1.9050" cy="19.6450" r="0.2540" /> 
</g>
<g style="fill:#000000; fill-opacity:1.0000; stroke:none;">
<circle cx="1.9050" cy="22.1850" r="0.2540" /> 
</g>
<g style="fill:#000000; fill-opacity:1.0000; stroke:none;">
<circle cx="1.9050" cy="24.7250" r="0.2540" /> 
</g>
<g style="fill:#000000; fill-opacity:1.0000; stroke:none;">
<circle cx="1.9050" cy="27.2650" r="0.2540" /> 
</g>
<g style="fill:#000000; fill-opacity:1.0000; stroke:none;">
<circle cx="1.9050" cy="29.8050" r="0.2540" /> 
</g>
<g style="fill:#000000; fill-opacity:1.0000; stroke:none;">
<circle cx="1.9050" cy="32.3450" r="0.2540" /> 
</g>
<g style="fill:#000000; fill-opacity:1.0000; stroke:none;">
<circle cx="1.9050" cy="34.8850" r="0.2540" /> 
</g>
<g style="fill:#000000; fill-opacity:1.0000; stroke:none;">
<circle cx="1.9050" cy="37.4250" r="0.2540" /> 
</g> 
</svg>
