<?xml version="1.0" standalone="no"?>
 <!DOCTYPE svg PUBLIC "-//W3C//DTD SVG 1.1//EN" 
 "http://www.w3.org/Graphics/SVG/1.1/DTD/svg11.dtd"> 
<svg
  xmlns:svg="http://www.w3.org/2000/svg"
  xmlns="http://www.w3.org/2000/svg"
  xmlns:xlink="http://www.w3.org/1999/xlink"
  version="1.1"
  width="50.8000mm" height="70.1040mm" viewBox="0.0000 0.0000 50.8000 70.1040">
<title>SVG Image created as mask-back.svg date 2025/09/13 13:59:00 </title>
  <desc>Image generated by PCBNEW </desc>
<g style="fill:#000000; fill-opacity:1.0000;stroke:#000000; stroke-opacity:1.0000;
stroke-linecap:round; stroke-linejoin:round;"
 transform="translate(0 0) scale(1 1)">
<path style="fill:#000000; fill-opacity:1.0000; stroke:none;fill-rule:evenodd;"
d="M 31.3300,24.2200
31.3110,24.3157
31.2568,24.3968
31.1757,24.4510
31.0800,24.4700
29.8800,24.4700
29.7843,24.4510
29.7032,24.3968
29.6490,24.3157
29.6300,24.2200
29.6300,22.7700
29.6490,22.6743
29.7032,22.5932
29.7843,22.5390
29.8800,22.5200
31.0800,22.5200
31.1757,22.5390
31.2568,22.5932
31.3110,22.6743
31.3300,22.7700
Z" /> 
<path style="fill:#000000; fill-opacity:1.0000; stroke:none;fill-rule:evenodd;"
d="M 31.3300,21.6800
31.3110,21.7757
31.2568,21.8568
31.1757,21.9110
31.0800,21.9300
29.8800,21.9300
29.7843,21.9110
29.7032,21.8568
29.6490,21.7757
29.6300,21.6800
29.6300,20.2300
29.6490,20.1343
29.7032,20.0532
29.7843,19.9990
29.8800,19.9800
31.0800,19.9800
31.1757,19.9990
31.2568,20.0532
31.3110,20.1343
31.3300,20.2300
Z" /> 
<path style="fill:#000000; fill-opacity:1.0000; stroke:none;fill-rule:evenodd;"
d="M 40.7300,18.7950
40.8257,18.8140
40.9068,18.8682
40.9610,18.9493
40.9800,19.0450
40.9800,20.2450
40.9610,20.3407
40.9068,20.4218
40.8257,20.4760
40.7300,20.4950
39.2800,20.4950
39.1843,20.4760
39.1032,20.4218
39.0490,20.3407
39.0300,20.2450
39.0300,19.0450
39.0490,18.9493
39.1032,18.8682
39.1843,18.8140
39.2800,18.7950
Z" /> 
<path style="fill:#000000; fill-opacity:1.0000; stroke:none;fill-rule:evenodd;"
d="M 40.7300,21.2950
40.8257,21.3140
40.9068,21.3682
40.9610,21.4493
40.9800,21.5450
40.9800,22.7450
40.9610,22.8407
40.9068,22.9218
40.8257,22.9760
40.7300,22.9950
39.2800,22.9950
39.1843,22.9760
39.1032,22.9218
39.0490,22.8407
39.0300,22.7450
39.0300,21.5450
39.0490,21.4493
39.1032,21.3682
39.1843,21.3140
39.2800,21.2950
Z" /> 
<path style="fill:#000000; fill-opacity:1.0000; stroke:none;fill-rule:evenodd;"
d="M 29.7550,14.1450
29.6593,14.1260
29.5782,14.0718
29.5240,13.9907
29.5050,13.8950
29.5050,12.6950
29.5240,12.5993
29.5782,12.5182
29.6593,12.4640
29.7550,12.4450
31.2050,12.4450
31.3007,12.4640
31.3818,12.5182
31.4360,12.5993
31.4550,12.6950
31.4550,13.8950
31.4360,13.9907
31.3818,14.0718
31.3007,14.1260
31.2050,14.1450
Z" /> 
<path style="fill:#000000; fill-opacity:1.0000; stroke:none;fill-rule:evenodd;"
d="M 29.7550,11.6450
29.6593,11.6260
29.5782,11.5718
29.5240,11.4907
29.5050,11.3950
29.5050,10.1950
29.5240,10.0993
29.5782,10.0182
29.6593,9.9640
29.7550,9.9450
31.2050,9.9450
31.3007,9.9640
31.3818,10.0182
31.4360,10.0993
31.4550,10.1950
31.4550,11.3950
31.4360,11.4907
31.3818,11.5718
31.3007,11.6260
31.2050,11.6450
Z" /> 
<path style="fill:#000000; fill-opacity:1.0000; stroke:none;fill-rule:evenodd;"
d="M 29.7550,9.1450
29.6593,9.1260
29.5782,9.0718
29.5240,8.9907
29.5050,8.8950
29.5050,7.6950
29.5240,7.5993
29.5782,7.5182
29.6593,7.4640
29.7550,7.4450
31.2050,7.4450
31.3007,7.4640
31.3818,7.5182
31.4360,7.5993
31.4550,7.6950
31.4550,8.8950
31.4360,8.9907
31.3818,9.0718
31.3007,9.1260
31.2050,9.1450
Z" /> 
<path style="fill:#000000; fill-opacity:1.0000; stroke:none;fill-rule:evenodd;"
d="M 29.7550,6.6450
29.6593,6.6260
29.5782,6.5718
29.5240,6.4907
29.5050,6.3950
29.5050,5.1950
29.5240,5.0993
29.5782,5.0182
29.6593,4.9640
29.7550,4.9450
31.2050,4.9450
31.3007,4.9640
31.3818,5.0182
31.4360,5.0993
31.4550,5.1950
31.4550,6.3950
31.4360,6.4907
31.3818,6.5718
31.3007,6.6260
31.2050,6.6450
Z" /> 
<path style="fill:#000000; fill-opacity:1.0000; stroke:none;fill-rule:evenodd;"
d="M 38.6450,14.1450
38.5493,14.1260
38.4682,14.0718
38.4140,13.9907
38.3950,13.8950
38.3950,12.6950
38.4140,12.5993
38.4682,12.5182
38.5493,12.4640
38.6450,12.4450
40.0950,12.4450
40.1907,12.4640
40.2718,12.5182
40.3260,12.5993
40.3450,12.6950
40.3450,13.8950
40.3260,13.9907
40.2718,14.0718
40.1907,14.1260
40.0950,14.1450
Z" /> 
<path style="fill:#000000; fill-opacity:1.0000; stroke:none;fill-rule:evenodd;"
d="M 38.6450,11.6450
38.5493,11.6260
38.4682,11.5718
38.4140,11.4907
38.3950,11.3950
38.3950,10.1950
38.4140,10.0993
38.4682,10.0182
38.5493,9.9640
38.6450,9.9450
40.0950,9.9450
40.1907,9.9640
40.2718,10.0182
40.3260,10.0993
40.3450,10.1950
40.3450,11.3950
40.3260,11.4907
40.2718,11.5718
40.1907,11.6260
40.0950,11.6450
Z" /> 
<path style="fill:#000000; fill-opacity:1.0000; stroke:none;fill-rule:evenodd;"
d="M 38.6450,9.1450
38.5493,9.1260
38.4682,9.0718
38.4140,8.9907
38.3950,8.8950
38.3950,7.6950
38.4140,7.5993
38.4682,7.5182
38.5493,7.4640
38.6450,7.4450
40.0950,7.4450
40.1907,7.4640
40.2718,7.5182
40.3260,7.5993
40.3450,7.6950
40.3450,8.8950
40.3260,8.9907
40.2718,9.0718
40.1907,9.1260
40.0950,9.1450
Z" /> 
<path style="fill:#000000; fill-opacity:1.0000; stroke:none;fill-rule:evenodd;"
d="M 38.6450,6.6450
38.5493,6.6260
38.4682,6.5718
38.4140,6.4907
38.3950,6.3950
38.3950,5.1950
38.4140,5.0993
38.4682,5.0182
38.5493,4.9640
38.6450,4.9450
40.0950,4.9450
40.1907,4.9640
40.2718,5.0182
40.3260,5.0993
40.3450,5.1950
40.3450,6.3950
40.3260,6.4907
40.2718,6.5718
40.1907,6.6260
40.0950,6.6450
Z" /> 
<path style="fill:#000000; fill-opacity:1.0000; stroke:none;fill-rule:evenodd;"
d="M 40.7300,27.7650
40.8257,27.7840
40.9068,27.8382
40.9610,27.9193
40.9800,28.0150
40.9800,29.2150
40.9610,29.3107
40.9068,29.3918
40.8257,29.4460
40.7300,29.4650
39.2800,29.4650
39.1843,29.4460
39.1032,29.3918
39.0490,29.3107
39.0300,29.2150
39.0300,28.0150
39.0490,27.9193
39.1032,27.8382
39.1843,27.7840
39.2800,27.7650
Z" /> 
<path style="fill:#000000; fill-opacity:1.0000; stroke:none;fill-rule:evenodd;"
d="M 40.7300,30.2650
40.8257,30.2840
40.9068,30.3382
40.9610,30.4193
40.9800,30.5150
40.9800,31.7150
40.9610,31.8107
40.9068,31.8918
40.8257,31.9460
40.7300,31.9650
39.2800,31.9650
39.1843,31.9460
39.1032,31.8918
39.0490,31.8107
39.0300,31.7150
39.0300,30.5150
39.0490,30.4193
39.1032,30.3382
39.1843,30.2840
39.2800,30.2650
Z" /> 
<path style="fill:#000000; fill-opacity:1.0000; stroke:none;fill-rule:evenodd;"
d="M 40.7300,32.7650
40.8257,32.7840
40.9068,32.8382
40.9610,32.9193
40.9800,33.0150
40.9800,34.2150
40.9610,34.3107
40.9068,34.3918
40.8257,34.4460
40.7300,34.4650
39.2800,34.4650
39.1843,34.4460
39.1032,34.3918
39.0490,34.3107
39.0300,34.2150
39.0300,33.0150
39.0490,32.9193
39.1032,32.8382
39.1843,32.7840
39.2800,32.7650
Z" /> 
<path style="fill:#000000; fill-opacity:1.0000; stroke:none;fill-rule:evenodd;"
d="M 40.7300,35.2650
40.8257,35.2840
40.9068,35.3382
40.9610,35.4193
40.9800,35.5150
40.9800,36.7150
40.9610,36.8107
40.9068,36.8918
40.8257,36.9460
40.7300,36.9650
39.2800,36.9650
39.1843,36.9460
39.1032,36.8918
39.0490,36.8107
39.0300,36.7150
39.0300,35.5150
39.0490,35.4193
39.1032,35.3382
39.1843,35.2840
39.2800,35.2650
Z" /> 
</g>
<g style="fill:#000000; fill-opacity:1.0000; stroke:none;">
<circle cx="48.8950" cy="6.9450" r="0.9525" /> 
<circle cx="48.8950" cy="9.4850" r="0.9525" /> 
<circle cx="48.8950" cy="12.0250" r="0.9525" /> 
<circle cx="48.8950" cy="14.5650" r="0.9525" /> 
<circle cx="48.8950" cy="17.1050" r="0.9525" /> 
<circle cx="48.8950" cy="19.6450" r="0.9525" /> 
<circle cx="48.8950" cy="22.1850" r="0.9525" /> 
<circle cx="48.8950" cy="24.7250" r="0.9525" /> 
<circle cx="48.8950" cy="27.2650" r="0.9525" /> 
<circle cx="48.8950" cy="29.8050" r="0.9525" /> 
<circle cx="48.8950" cy="32.3450" r="0.9525" /> 
<circle cx="48.8950" cy="34.8850" r="0.9525" /> 
<circle cx="48.8950" cy="37.4250" r="0.9525" /> 
<path style="fill:none; 
stroke:#000000; stroke-width:0.0500; stroke-opacity:1; 
stroke-linecap:round; stroke-linejoin:round;fill:none"
d="M 0.0000,0.0000
50.8000,0.0000
50.8000,69.8500
0.0000,69.8500
Z" /> 
</g> 
</svg>
