<?xml version="1.0" standalone="no"?>
 <!DOCTYPE svg PUBLIC "-//W3C//DTD SVG 1.1//EN" 
 "http://www.w3.org/Graphics/SVG/1.1/DTD/svg11.dtd"> 
<svg
  xmlns:svg="http://www.w3.org/2000/svg"
  xmlns="http://www.w3.org/2000/svg"
  xmlns:xlink="http://www.w3.org/1999/xlink"
  version="1.1"
  width="50.8000mm" height="70.1040mm" viewBox="0.0000 0.0000 50.8000 70.1040">
<title>SVG Image created as mask-front.svg date 2025/09/13 13:59:03 </title>
  <desc>Image generated by PCBNEW </desc>
<g style="fill:#000000; fill-opacity:1.0000;stroke:#000000; stroke-opacity:1.0000;
stroke-linecap:round; stroke-linejoin:round;"
 transform="translate(0 0) scale(1 1)">
<path style="fill:#000000; fill-opacity:1.0000; stroke:none;fill-rule:evenodd;"
d="M 19.4700,24.2200
19.4890,24.3157
19.5432,24.3968
19.6243,24.4510
19.7200,24.4700
20.9200,24.4700
21.0157,24.4510
21.0968,24.3968
21.1510,24.3157
21.1700,24.2200
21.1700,22.7700
21.1510,22.6743
21.0968,22.5932
21.0157,22.5390
20.9200,22.5200
19.7200,22.5200
19.6243,22.5390
19.5432,22.5932
19.4890,22.6743
19.4700,22.7700
Z" /> 
<path style="fill:#000000; fill-opacity:1.0000; stroke:none;fill-rule:evenodd;"
d="M 19.4700,21.6800
19.4890,21.7757
19.5432,21.8568
19.6243,21.9110
19.7200,21.9300
20.9200,21.9300
21.0157,21.9110
21.0968,21.8568
21.1510,21.7757
21.1700,21.6800
21.1700,20.2300
21.1510,20.1343
21.0968,20.0532
21.0157,19.9990
20.9200,19.9800
19.7200,19.9800
19.6243,19.9990
19.5432,20.0532
19.4890,20.1343
19.4700,20.2300
Z" /> 
<path style="fill:#000000; fill-opacity:1.0000; stroke:none;fill-rule:evenodd;"
d="M 10.0700,18.7950
9.9743,18.8140
9.8932,18.8682
9.8390,18.9493
9.8200,19.0450
9.8200,20.2450
9.8390,20.3407
9.8932,20.4218
9.9743,20.4760
10.0700,20.4950
11.5200,20.4950
11.6157,20.4760
11.6968,20.4218
11.7510,20.3407
11.7700,20.2450
11.7700,19.0450
11.7510,18.9493
11.6968,18.8682
11.6157,18.8140
11.5200,18.7950
Z" /> 
<path style="fill:#000000; fill-opacity:1.0000; stroke:none;fill-rule:evenodd;"
d="M 10.0700,21.2950
9.9743,21.3140
9.8932,21.3682
9.8390,21.4493
9.8200,21.5450
9.8200,22.7450
9.8390,22.8407
9.8932,22.9218
9.9743,22.9760
10.0700,22.9950
11.5200,22.9950
11.6157,22.9760
11.6968,22.9218
11.7510,22.8407
11.7700,22.7450
11.7700,21.5450
11.7510,21.4493
11.6968,21.3682
11.6157,21.3140
11.5200,21.2950
Z" /> 
<path style="fill:#000000; fill-opacity:1.0000; stroke:none;fill-rule:evenodd;"
d="M 21.0450,14.1450
21.1407,14.1260
21.2218,14.0718
21.2760,13.9907
21.2950,13.8950
21.2950,12.6950
21.2760,12.5993
21.2218,12.5182
21.1407,12.4640
21.0450,12.4450
19.5950,12.4450
19.4993,12.4640
19.4182,12.5182
19.3640,12.5993
19.3450,12.6950
19.3450,13.8950
19.3640,13.9907
19.4182,14.0718
19.4993,14.1260
19.5950,14.1450
Z" /> 
<path style="fill:#000000; fill-opacity:1.0000; stroke:none;fill-rule:evenodd;"
d="M 21.0450,11.6450
21.1407,11.6260
21.2218,11.5718
21.2760,11.4907
21.2950,11.3950
21.2950,10.1950
21.2760,10.0993
21.2218,10.0182
21.1407,9.9640
21.0450,9.9450
19.5950,9.9450
19.4993,9.9640
19.4182,10.0182
19.3640,10.0993
19.3450,10.1950
19.3450,11.3950
19.3640,11.4907
19.4182,11.5718
19.4993,11.6260
19.5950,11.6450
Z" /> 
<path style="fill:#000000; fill-opacity:1.0000; stroke:none;fill-rule:evenodd;"
d="M 21.0450,9.1450
21.1407,9.1260
21.2218,9.0718
21.2760,8.9907
21.2950,8.8950
21.2950,7.6950
21.2760,7.5993
21.2218,7.5182
21.1407,7.4640
21.0450,7.4450
19.5950,7.4450
19.4993,7.4640
19.4182,7.5182
19.3640,7.5993
19.3450,7.6950
19.3450,8.8950
19.3640,8.9907
19.4182,9.0718
19.4993,9.1260
19.5950,9.1450
Z" /> 
<path style="fill:#000000; fill-opacity:1.0000; stroke:none;fill-rule:evenodd;"
d="M 21.0450,6.6450
21.1407,6.6260
21.2218,6.5718
21.2760,6.4907
21.2950,6.3950
21.2950,5.1950
21.2760,5.0993
21.2218,5.0182
21.1407,4.9640
21.0450,4.9450
19.5950,4.9450
19.4993,4.9640
19.4182,5.0182
19.3640,5.0993
19.3450,5.1950
19.3450,6.3950
19.3640,6.4907
19.4182,6.5718
19.4993,6.6260
19.5950,6.6450
Z" /> 
<path style="fill:#000000; fill-opacity:1.0000; stroke:none;fill-rule:evenodd;"
d="M 12.1550,14.1450
12.2507,14.1260
12.3318,14.0718
12.3860,13.9907
12.4050,13.8950
12.4050,12.6950
12.3860,12.5993
12.3318,12.5182
12.2507,12.4640
12.1550,12.4450
10.7050,12.4450
10.6093,12.4640
10.5282,12.5182
10.4740,12.5993
10.4550,12.6950
10.4550,13.8950
10.4740,13.9907
10.5282,14.0718
10.6093,14.1260
10.7050,14.1450
Z" /> 
<path style="fill:#000000; fill-opacity:1.0000; stroke:none;fill-rule:evenodd;"
d="M 12.1550,11.6450
12.2507,11.6260
12.3318,11.5718
12.3860,11.4907
12.4050,11.3950
12.4050,10.1950
12.3860,10.0993
12.3318,10.0182
12.2507,9.9640
12.1550,9.9450
10.7050,9.9450
10.6093,9.9640
10.5282,10.0182
10.4740,10.0993
10.4550,10.1950
10.4550,11.3950
10.4740,11.4907
10.5282,11.5718
10.6093,11.6260
10.7050,11.6450
Z" /> 
<path style="fill:#000000; fill-opacity:1.0000; stroke:none;fill-rule:evenodd;"
d="M 12.1550,9.1450
12.2507,9.1260
12.3318,9.0718
12.3860,8.9907
12.4050,8.8950
12.4050,7.6950
12.3860,7.5993
12.3318,7.5182
12.2507,7.4640
12.1550,7.4450
10.7050,7.4450
10.6093,7.4640
10.5282,7.5182
10.4740,7.5993
10.4550,7.6950
10.4550,8.8950
10.4740,8.9907
10.5282,9.0718
10.6093,9.1260
10.7050,9.1450
Z" /> 
<path style="fill:#000000; fill-opacity:1.0000; stroke:none;fill-rule:evenodd;"
d="M 12.1550,6.6450
12.2507,6.6260
12.3318,6.5718
12.3860,6.4907
12.4050,6.3950
12.4050,5.1950
12.3860,5.0993
12.3318,5.0182
12.2507,4.9640
12.1550,4.9450
10.7050,4.9450
10.6093,4.9640
10.5282,5.0182
10.4740,5.0993
10.4550,5.1950
10.4550,6.3950
10.4740,6.4907
10.5282,6.5718
10.6093,6.6260
10.7050,6.6450
Z" /> 
<path style="fill:#000000; fill-opacity:1.0000; stroke:none;fill-rule:evenodd;"
d="M 10.0700,27.7650
9.9743,27.7840
9.8932,27.8382
9.8390,27.9193
9.8200,28.0150
9.8200,29.2150
9.8390,29.3107
9.8932,29.3918
9.9743,29.4460
10.0700,29.4650
11.5200,29.4650
11.6157,29.4460
11.6968,29.3918
11.7510,29.3107
11.7700,29.2150
11.7700,28.0150
11.7510,27.9193
11.6968,27.8382
11.6157,27.7840
11.5200,27.7650
Z" /> 
<path style="fill:#000000; fill-opacity:1.0000; stroke:none;fill-rule:evenodd;"
d="M 10.0700,30.2650
9.9743,30.2840
9.8932,30.3382
9.8390,30.4193
9.8200,30.5150
9.8200,31.7150
9.8390,31.8107
9.8932,31.8918
9.9743,31.9460
10.0700,31.9650
11.5200,31.9650
11.6157,31.9460
11.6968,31.8918
11.7510,31.8107
11.7700,31.7150
11.7700,30.5150
11.7510,30.4193
11.6968,30.3382
11.6157,30.2840
11.5200,30.2650
Z" /> 
<path style="fill:#000000; fill-opacity:1.0000; stroke:none;fill-rule:evenodd;"
d="M 10.0700,32.7650
9.9743,32.7840
9.8932,32.8382
9.8390,32.9193
9.8200,33.0150
9.8200,34.2150
9.8390,34.3107
9.8932,34.3918
9.9743,34.4460
10.0700,34.4650
11.5200,34.4650
11.6157,34.4460
11.6968,34.3918
11.7510,34.3107
11.7700,34.2150
11.7700,33.0150
11.7510,32.9193
11.6968,32.8382
11.6157,32.7840
11.5200,32.7650
Z" /> 
<path style="fill:#000000; fill-opacity:1.0000; stroke:none;fill-rule:evenodd;"
d="M 10.0700,35.2650
9.9743,35.2840
9.8932,35.3382
9.8390,35.4193
9.8200,35.5150
9.8200,36.7150
9.8390,36.8107
9.8932,36.8918
9.9743,36.9460
10.0700,36.9650
11.5200,36.9650
11.6157,36.9460
11.6968,36.8918
11.7510,36.8107
11.7700,36.7150
11.7700,35.5150
11.7510,35.4193
11.6968,35.3382
11.6157,35.2840
11.5200,35.2650
Z" /> 
<path style="fill:#000000; fill-opacity:1.0000; stroke:none;fill-rule:evenodd;"
d="M 3.6195,6.1830
3.6195,7.7070
6.7945,7.7070
6.7945,6.1830
Z" /> 
</g>
<g style="fill:#000000; fill-opacity:1.0000; stroke:none;">
<circle cx="1.9050" cy="6.9450" r="0.9525" /> 
<path style="fill:#000000; fill-opacity:1.0000; stroke:none;fill-rule:evenodd;"
d="M 3.6195,8.7230
3.6195,10.2470
6.7945,10.2470
6.7945,8.7230
Z" /> 
<circle cx="1.9050" cy="9.4850" r="0.9525" /> 
<path style="fill:#000000; fill-opacity:1.0000; stroke:none;fill-rule:evenodd;"
d="M 3.6195,11.2630
3.6195,12.7870
6.7945,12.7870
6.7945,11.2630
Z" /> 
<circle cx="1.9050" cy="12.0250" r="0.9525" /> 
<path style="fill:#000000; fill-opacity:1.0000; stroke:none;fill-rule:evenodd;"
d="M 3.6195,13.8030
3.6195,15.3270
6.7945,15.3270
6.7945,13.8030
Z" /> 
<circle cx="1.9050" cy="14.5650" r="0.9525" /> 
<path style="fill:#000000; fill-opacity:1.0000; stroke:none;fill-rule:evenodd;"
d="M 3.6195,16.3430
3.6195,17.8670
6.7945,17.8670
6.7945,16.3430
Z" /> 
<circle cx="1.9050" cy="17.1050" r="0.9525" /> 
<path style="fill:#000000; fill-opacity:1.0000; stroke:none;fill-rule:evenodd;"
d="M 3.6195,18.8830
3.6195,20.4070
6.7945,20.4070
6.7945,18.8830
Z" /> 
<circle cx="1.9050" cy="19.6450" r="0.9525" /> 
<path style="fill:#000000; fill-opacity:1.0000; stroke:none;fill-rule:evenodd;"
d="M 3.6195,21.4230
3.6195,22.9470
6.7945,22.9470
6.7945,21.4230
Z" /> 
<circle cx="1.9050" cy="22.1850" r="0.9525" /> 
<path style="fill:#000000; fill-opacity:1.0000; stroke:none;fill-rule:evenodd;"
d="M 3.6195,23.9630
3.6195,25.4870
6.7945,25.4870
6.7945,23.9630
Z" /> 
<circle cx="1.9050" cy="24.7250" r="0.9525" /> 
<path style="fill:#000000; fill-opacity:1.0000; stroke:none;fill-rule:evenodd;"
d="M 3.6195,26.5030
3.6195,28.0270
6.7945,28.0270
6.7945,26.5030
Z" /> 
<circle cx="1.9050" cy="27.2650" r="0.9525" /> 
<path style="fill:#000000; fill-opacity:1.0000; stroke:none;fill-rule:evenodd;"
d="M 3.6195,29.0430
3.6195,30.5670
6.7945,30.5670
6.7945,29.0430
Z" /> 
<circle cx="1.9050" cy="29.8050" r="0.9525" /> 
<path style="fill:#000000; fill-opacity:1.0000; stroke:none;fill-rule:evenodd;"
d="M 3.6195,31.5830
3.6195,33.1070
6.7945,33.1070
6.7945,31.5830
Z" /> 
<circle cx="1.9050" cy="32.3450" r="0.9525" /> 
<path style="fill:#000000; fill-opacity:1.0000; stroke:none;fill-rule:evenodd;"
d="M 3.6195,34.1230
3.6195,35.6470
6.7945,35.6470
6.7945,34.1230
Z" /> 
<circle cx="1.9050" cy="34.8850" r="0.9525" /> 
<path style="fill:#000000; fill-opacity:1.0000; stroke:none;fill-rule:evenodd;"
d="M 3.6195,36.6630
3.6195,38.1870
6.7945,38.1870
6.7945,36.6630
Z" /> 
<circle cx="1.9050" cy="37.4250" r="0.9525" /> 
<path style="fill:none; 
stroke:#000000; stroke-width:0.0500; stroke-opacity:1; 
stroke-linecap:round; stroke-linejoin:round;fill:none"
d="M 50.8000,0.0000
0.0000,0.0000
0.0000,69.8500
50.8000,69.8500
Z" /> 
</g> 
</svg>
